G04*
G04 #@! TF.GenerationSoftware,Altium Limited,Altium Designer,19.1.5 (86)*
G04*
G04 Layer_Color=8388736*
%FSLAX25Y25*%
%MOIN*%
G70*
G01*
G75*
%ADD41R,0.04737X0.10642*%
%ADD42R,0.09068X0.08083*%
%ADD43R,0.12611X0.29147*%
%ADD44R,0.03556X0.07887*%
%ADD45R,0.03950X0.02375*%
%ADD46R,0.04800X0.05800*%
%ADD47R,0.05131X0.03359*%
%ADD48R,0.02965X0.04737*%
%ADD49R,0.04737X0.03556*%
G04:AMPARAMS|DCode=50|XSize=19.81mil|YSize=65.09mil|CornerRadius=0mil|HoleSize=0mil|Usage=FLASHONLY|Rotation=225.000|XOffset=0mil|YOffset=0mil|HoleType=Round|Shape=Round|*
%AMOVALD50*
21,1,0.04528,0.01981,0.00000,0.00000,315.0*
1,1,0.01981,-0.01601,0.01601*
1,1,0.01981,0.01601,-0.01601*
%
%ADD50OVALD50*%

G04:AMPARAMS|DCode=51|XSize=19.81mil|YSize=65.09mil|CornerRadius=0mil|HoleSize=0mil|Usage=FLASHONLY|Rotation=135.000|XOffset=0mil|YOffset=0mil|HoleType=Round|Shape=Round|*
%AMOVALD51*
21,1,0.04528,0.01981,0.00000,0.00000,225.0*
1,1,0.01981,0.01601,0.01601*
1,1,0.01981,-0.01601,-0.01601*
%
%ADD51OVALD51*%

%ADD52R,0.08989X0.03556*%
%ADD53R,0.14186X0.05918*%
%ADD54R,0.02756X0.02756*%
%ADD55O,0.06312X0.02572*%
%ADD56R,0.07296X0.04934*%
%ADD57R,0.05131X0.04737*%
%ADD58R,0.04540X0.04343*%
%ADD59R,0.04540X0.04343*%
%ADD60R,0.02756X0.02756*%
%ADD61P,0.03897X4X360.0*%
%ADD62P,0.03897X4X270.0*%
%ADD63R,0.04737X0.05131*%
%ADD64R,0.05800X0.04800*%
%ADD65C,0.03359*%
%ADD66O,0.04343X0.10249*%
%ADD67O,0.04343X0.07493*%
%ADD68C,0.05131*%
%ADD69C,0.06706*%
%ADD70C,0.07099*%
%ADD71C,0.03950*%
D41*
X222094Y146606D02*
D03*
X233906D02*
D03*
X203906Y139500D02*
D03*
X192095D02*
D03*
D42*
X226678Y162117D02*
D03*
X244388D02*
D03*
D43*
X213815Y183606D02*
D03*
X233500D02*
D03*
D44*
X250453Y188500D02*
D03*
X244547D02*
D03*
X215953Y139000D02*
D03*
X210047D02*
D03*
D45*
X148268Y160941D02*
D03*
Y163500D02*
D03*
Y166059D02*
D03*
X156732D02*
D03*
X156732Y163500D02*
D03*
X156732Y160941D02*
D03*
D46*
X183300Y174000D02*
D03*
X191700D02*
D03*
X258300Y194000D02*
D03*
X266700D02*
D03*
D47*
X205276Y158346D02*
D03*
Y154606D02*
D03*
Y150866D02*
D03*
X214724D02*
D03*
Y154606D02*
D03*
Y158346D02*
D03*
D48*
X174240Y174000D02*
D03*
X170500D02*
D03*
X166760D02*
D03*
Y164157D02*
D03*
X174240D02*
D03*
X182260Y166815D02*
D03*
X186000D02*
D03*
X189740D02*
D03*
Y156185D02*
D03*
X186000D02*
D03*
X182260D02*
D03*
D49*
X157449Y179500D02*
D03*
Y175760D02*
D03*
Y172020D02*
D03*
X148000D02*
D03*
Y175760D02*
D03*
Y179500D02*
D03*
D50*
X105106Y150582D02*
D03*
X106498Y151974D02*
D03*
X107890Y153366D02*
D03*
X109282Y154758D02*
D03*
X110674Y156150D02*
D03*
X112066Y157542D02*
D03*
X113458Y158934D02*
D03*
X114850Y160326D02*
D03*
X116242Y161718D02*
D03*
X117634Y163110D02*
D03*
X119026Y164502D02*
D03*
X120418Y165894D02*
D03*
X96894Y189418D02*
D03*
X95502Y188026D02*
D03*
X94110Y186634D02*
D03*
X92718Y185242D02*
D03*
X91326Y183850D02*
D03*
X89934Y182458D02*
D03*
X88542Y181066D02*
D03*
X87150Y179674D02*
D03*
X85758Y178282D02*
D03*
X84366Y176890D02*
D03*
X82974Y175498D02*
D03*
X81582Y174106D02*
D03*
D51*
X120418D02*
D03*
X119026Y175498D02*
D03*
X117634Y176890D02*
D03*
X116242Y178282D02*
D03*
X114850Y179674D02*
D03*
X113458Y181066D02*
D03*
X112066Y182458D02*
D03*
X110674Y183850D02*
D03*
X109282Y185242D02*
D03*
X107890Y186634D02*
D03*
X106498Y188026D02*
D03*
X105106Y189418D02*
D03*
X81582Y165894D02*
D03*
X82974Y164502D02*
D03*
X84366Y163110D02*
D03*
X85758Y161718D02*
D03*
X87150Y160326D02*
D03*
X88542Y158934D02*
D03*
X89934Y157542D02*
D03*
X91326Y156150D02*
D03*
X92718Y154758D02*
D03*
X94110Y153366D02*
D03*
X95502Y151974D02*
D03*
X96894Y150582D02*
D03*
D52*
X266283Y154095D02*
D03*
X281716Y152126D02*
D03*
X266283Y150157D02*
D03*
X281716Y148189D02*
D03*
Y156063D02*
D03*
X266283Y158031D02*
D03*
X281716Y160000D02*
D03*
X266283Y161969D02*
D03*
X281716Y163937D02*
D03*
X266283Y165905D02*
D03*
X281716Y167874D02*
D03*
X266283Y169843D02*
D03*
X281716Y171811D02*
D03*
X266283Y173779D02*
D03*
X281716Y175748D02*
D03*
X41284Y154095D02*
D03*
X56717Y152126D02*
D03*
X41284Y150157D02*
D03*
X56717Y148189D02*
D03*
Y156063D02*
D03*
X41284Y158031D02*
D03*
X56717Y160000D02*
D03*
X41284Y161969D02*
D03*
X56717Y163937D02*
D03*
X41284Y165905D02*
D03*
X56717Y167874D02*
D03*
X41284Y169843D02*
D03*
X56717Y171811D02*
D03*
X41284Y173779D02*
D03*
X56717Y175748D02*
D03*
D53*
X274000Y186406D02*
D03*
Y137531D02*
D03*
X49000Y186406D02*
D03*
Y137531D02*
D03*
D54*
X97000Y139000D02*
D03*
X93803D02*
D03*
X209500Y164106D02*
D03*
X212697D02*
D03*
X170500Y159000D02*
D03*
X173697D02*
D03*
X225697Y154106D02*
D03*
X222500D02*
D03*
X214697Y146106D02*
D03*
X211500D02*
D03*
X183500Y146000D02*
D03*
X180303D02*
D03*
X183500Y139000D02*
D03*
X180303D02*
D03*
D55*
X151614Y140161D02*
D03*
X151614Y142720D02*
D03*
X151614Y145280D02*
D03*
Y147839D02*
D03*
X128386Y140161D02*
D03*
Y142720D02*
D03*
Y145280D02*
D03*
Y147839D02*
D03*
D56*
X56579Y195646D02*
D03*
X41421D02*
D03*
X56579Y201354D02*
D03*
X41421D02*
D03*
D57*
X166654Y153500D02*
D03*
X173346D02*
D03*
D58*
X165874Y146240D02*
D03*
X175126Y142500D02*
D03*
D59*
X165874Y138760D02*
D03*
D60*
X161000Y146000D02*
D03*
Y142803D02*
D03*
X198000Y150606D02*
D03*
Y147409D02*
D03*
Y158197D02*
D03*
Y155000D02*
D03*
X124000Y197500D02*
D03*
Y200697D02*
D03*
X34000Y159500D02*
D03*
Y162697D02*
D03*
X71500Y156303D02*
D03*
Y159500D02*
D03*
X34000Y174197D02*
D03*
Y171000D02*
D03*
X66000Y164303D02*
D03*
Y167500D02*
D03*
X34000Y148000D02*
D03*
Y151197D02*
D03*
X66000Y159500D02*
D03*
Y156303D02*
D03*
X122000Y140303D02*
D03*
Y143500D02*
D03*
X289000Y160500D02*
D03*
Y163697D02*
D03*
X122000Y147803D02*
D03*
Y151000D02*
D03*
X190000Y147303D02*
D03*
Y150500D02*
D03*
D61*
X118000Y186000D02*
D03*
X115740Y188260D02*
D03*
X90240Y147760D02*
D03*
X92500Y145500D02*
D03*
X112260Y191739D02*
D03*
X110000Y194000D02*
D03*
D62*
X107500Y143500D02*
D03*
X109760Y145761D02*
D03*
X75000Y177500D02*
D03*
X77261Y179761D02*
D03*
D63*
X140000Y168193D02*
D03*
Y161500D02*
D03*
X257500Y144846D02*
D03*
Y138154D02*
D03*
X67500Y138154D02*
D03*
Y144846D02*
D03*
D64*
X244500Y180606D02*
D03*
Y172206D02*
D03*
D65*
X175461Y188500D02*
D03*
X178807D02*
D03*
X182153D02*
D03*
X185500D02*
D03*
X188847D02*
D03*
X192193D02*
D03*
X195539D02*
D03*
X198886D02*
D03*
Y183185D02*
D03*
X195539D02*
D03*
X192193D02*
D03*
X188847D02*
D03*
X185500D02*
D03*
X182153D02*
D03*
X178807D02*
D03*
X175461D02*
D03*
D66*
X204201Y187043D02*
D03*
X170146D02*
D03*
D67*
X204201Y200350D02*
D03*
X170146D02*
D03*
D68*
X150000Y195500D02*
D03*
Y190500D02*
D03*
X145000Y195500D02*
D03*
Y190500D02*
D03*
X140000Y195500D02*
D03*
Y190500D02*
D03*
X135000Y195500D02*
D03*
Y190500D02*
D03*
X130000Y195500D02*
D03*
Y190500D02*
D03*
D69*
X274000Y181850D02*
D03*
X49000D02*
D03*
D70*
X274000Y142087D02*
D03*
X49000D02*
D03*
D71*
X41028Y201650D02*
D03*
X56972D02*
D03*
M02*
