G04*
G04 #@! TF.GenerationSoftware,Altium Limited,Altium Designer,19.1.5 (86)*
G04*
G04 Layer_Physical_Order=1*
G04 Layer_Color=255*
%FSLAX25Y25*%
%MOIN*%
G70*
G01*
G75*
%ADD14C,0.01000*%
%ADD16C,0.00600*%
%ADD72R,0.03937X0.09843*%
%ADD73R,0.08268X0.07284*%
%ADD74R,0.11811X0.28347*%
%ADD75R,0.02756X0.07087*%
%ADD76R,0.03150X0.01575*%
%ADD77R,0.04000X0.05000*%
%ADD78R,0.04331X0.02559*%
%ADD79R,0.02165X0.03937*%
%ADD80R,0.03937X0.02756*%
G04:AMPARAMS|DCode=81|XSize=11.81mil|YSize=57.09mil|CornerRadius=0mil|HoleSize=0mil|Usage=FLASHONLY|Rotation=225.000|XOffset=0mil|YOffset=0mil|HoleType=Round|Shape=Round|*
%AMOVALD81*
21,1,0.04528,0.01181,0.00000,0.00000,315.0*
1,1,0.01181,-0.01601,0.01601*
1,1,0.01181,0.01601,-0.01601*
%
%ADD81OVALD81*%

G04:AMPARAMS|DCode=82|XSize=11.81mil|YSize=57.09mil|CornerRadius=0mil|HoleSize=0mil|Usage=FLASHONLY|Rotation=135.000|XOffset=0mil|YOffset=0mil|HoleType=Round|Shape=Round|*
%AMOVALD82*
21,1,0.04528,0.01181,0.00000,0.00000,225.0*
1,1,0.01181,0.01601,0.01601*
1,1,0.01181,-0.01601,-0.01601*
%
%ADD82OVALD82*%

%ADD83R,0.08189X0.02756*%
%ADD84R,0.13386X0.05118*%
%ADD85R,0.02362X0.02362*%
%ADD86O,0.05512X0.01772*%
%ADD87R,0.06496X0.04134*%
%ADD88R,0.04331X0.03937*%
%ADD89R,0.03740X0.03543*%
%ADD90R,0.03740X0.03543*%
%ADD91R,0.02362X0.02362*%
%ADD92P,0.03341X4X360.0*%
%ADD93P,0.03341X4X270.0*%
%ADD94R,0.03937X0.04331*%
%ADD95R,0.05000X0.04000*%
%ADD96C,0.01500*%
%ADD97C,0.02500*%
%ADD98C,0.02000*%
%ADD99C,0.05000*%
%ADD100C,0.02800*%
%ADD101C,0.03000*%
%ADD102C,0.04000*%
%ADD103C,0.02559*%
%ADD104O,0.03543X0.09449*%
%ADD105O,0.03543X0.06693*%
%ADD106C,0.04331*%
%ADD107C,0.05906*%
%ADD108C,0.06299*%
%ADD109C,0.03150*%
%ADD110C,0.01800*%
%ADD111C,0.02000*%
G36*
X289869Y205866D02*
X290412Y205641D01*
X290900Y205315D01*
X291315Y204900D01*
X291641Y204412D01*
X291866Y203869D01*
X291981Y203293D01*
Y183606D01*
X291480Y183398D01*
X284230Y190649D01*
X283932Y190848D01*
X283581Y190918D01*
X272231D01*
X272029Y191296D01*
X272016Y191418D01*
X272131Y192000D01*
X272007Y192624D01*
X271842Y192871D01*
X271692Y193250D01*
X271842Y193629D01*
X272007Y193876D01*
X272131Y194500D01*
X272007Y195124D01*
X271654Y195653D01*
X271124Y196007D01*
X270500Y196131D01*
X269300D01*
Y197100D01*
X264100D01*
Y190900D01*
X264100Y190900D01*
X264100D01*
X264102Y190400D01*
X257351Y183649D01*
X257152Y183351D01*
X257082Y183000D01*
Y178191D01*
X256919Y178081D01*
X256587Y177585D01*
X256471Y177000D01*
X256587Y176415D01*
X256919Y175919D01*
X257095Y175801D01*
Y175199D01*
X256919Y175081D01*
X256587Y174585D01*
X256471Y174000D01*
X256587Y173415D01*
X256919Y172919D01*
X257095Y172801D01*
Y172199D01*
X256919Y172081D01*
X256587Y171585D01*
X256471Y171000D01*
X256587Y170415D01*
X256919Y169919D01*
X257095Y169801D01*
Y169199D01*
X256919Y169081D01*
X256587Y168585D01*
X256471Y168000D01*
X256587Y167415D01*
X256919Y166919D01*
X257095Y166801D01*
Y166199D01*
X256919Y166081D01*
X256587Y165585D01*
X256471Y165000D01*
X256587Y164415D01*
X256919Y163919D01*
X257095Y163801D01*
Y163199D01*
X256919Y163081D01*
X256587Y162585D01*
X256471Y162000D01*
X256587Y161415D01*
X256919Y160919D01*
X257095Y160801D01*
Y160199D01*
X256919Y160081D01*
X256587Y159585D01*
X256471Y159000D01*
X256587Y158415D01*
X256919Y157919D01*
X257095Y157801D01*
Y157199D01*
X256919Y157081D01*
X256587Y156585D01*
X256471Y156000D01*
X256587Y155415D01*
X256919Y154919D01*
X257095Y154801D01*
Y154199D01*
X256919Y154081D01*
X256587Y153585D01*
X256471Y153000D01*
X256587Y152415D01*
X256919Y151919D01*
X257415Y151587D01*
X258000Y151471D01*
X258585Y151587D01*
X259081Y151919D01*
X259191Y152082D01*
X260500D01*
X260851Y152152D01*
X261089Y152311D01*
X261435Y152219D01*
X261589Y152084D01*
Y148179D01*
X266110D01*
X266441Y148114D01*
X271500D01*
X272222Y148257D01*
X272834Y148666D01*
X273243Y149278D01*
X273386Y150000D01*
X273243Y150722D01*
X272834Y151334D01*
X272222Y151743D01*
X271500Y151886D01*
X270978D01*
Y156145D01*
X271500D01*
X272222Y156289D01*
X272834Y156698D01*
X273243Y157310D01*
X273386Y158031D01*
X273243Y158753D01*
X272834Y159365D01*
X272222Y159774D01*
X271500Y159918D01*
X270978D01*
Y161051D01*
X271468D01*
X271820Y161121D01*
X272117Y161320D01*
X274299Y163501D01*
X274412Y163670D01*
X274933Y163616D01*
X274993Y163313D01*
X275346Y162783D01*
X275876Y162430D01*
X276273Y162351D01*
Y161841D01*
X275778Y161743D01*
X275166Y161334D01*
X274757Y160722D01*
X274614Y160000D01*
X274757Y159278D01*
X275166Y158666D01*
X275778Y158257D01*
X276500Y158114D01*
X277022D01*
Y154085D01*
Y150148D01*
Y146211D01*
X286411D01*
Y146303D01*
X287500D01*
X288222Y146446D01*
X288834Y146855D01*
X289243Y147467D01*
X289386Y148189D01*
X289243Y148911D01*
X288834Y149523D01*
X288222Y149932D01*
X287500Y150075D01*
X286411D01*
Y151208D01*
X288126D01*
X288477Y151278D01*
X288775Y151477D01*
X291480Y154183D01*
X291981Y153976D01*
Y136706D01*
X291866Y136131D01*
X291641Y135588D01*
X291315Y135100D01*
X290900Y134685D01*
X290412Y134359D01*
X289869Y134134D01*
X289294Y134019D01*
X281647D01*
X281293Y134372D01*
X281293Y134520D01*
Y140691D01*
X277930D01*
X277789Y140902D01*
X277664Y141191D01*
X277782Y142087D01*
X277653Y143066D01*
X277275Y143978D01*
X276674Y144761D01*
X275891Y145362D01*
X274979Y145740D01*
X274000Y145869D01*
X273021Y145740D01*
X272109Y145362D01*
X271326Y144761D01*
X270725Y143978D01*
X270347Y143066D01*
X270218Y142087D01*
X270336Y141191D01*
X270211Y140902D01*
X270070Y140691D01*
X266707D01*
Y134520D01*
X266707Y134372D01*
X266353Y134019D01*
X206474D01*
Y137369D01*
X208069D01*
Y134857D01*
X212025D01*
Y143143D01*
X208069D01*
Y140631D01*
X206474D01*
Y145021D01*
X201546D01*
X201117Y145430D01*
X201131Y145500D01*
X201007Y146124D01*
X200654Y146653D01*
X200124Y147007D01*
X199812Y147069D01*
Y147228D01*
X199781Y147386D01*
Y149235D01*
X202510D01*
Y148987D01*
X208041D01*
Y152727D01*
Y156467D01*
Y160226D01*
X206979D01*
Y160779D01*
X207644Y161443D01*
X208137Y161361D01*
X208156Y161321D01*
X208239Y161248D01*
X208281Y161147D01*
X208418Y161090D01*
X208529Y160992D01*
X208639Y160999D01*
X208740Y160957D01*
X211351D01*
X211351Y156606D01*
X211376Y156114D01*
X210846Y155760D01*
X209347Y154260D01*
X208993Y153731D01*
X208869Y153106D01*
Y147106D01*
X208993Y146482D01*
X209347Y145953D01*
X209719Y145580D01*
Y144325D01*
X216478D01*
Y147887D01*
X216328D01*
Y148987D01*
X217490D01*
Y152975D01*
X218324D01*
X219495Y151804D01*
Y147575D01*
X219526Y147417D01*
Y144294D01*
X219014Y144192D01*
X218484Y143839D01*
X217820Y143175D01*
X216331D01*
X216173Y143143D01*
X213975D01*
Y134857D01*
X217931D01*
Y139912D01*
X218496D01*
X219120Y140036D01*
X219650Y140390D01*
X220314Y141054D01*
X221126D01*
X221284Y141085D01*
X224663D01*
Y146872D01*
X225125Y147063D01*
X231041Y141147D01*
X231500Y140957D01*
X234086D01*
X234135Y140457D01*
X233915Y140413D01*
X233419Y140081D01*
X233087Y139585D01*
X232971Y139000D01*
X233087Y138415D01*
X232780Y137974D01*
X232500Y138029D01*
X231915Y137913D01*
X231419Y137581D01*
X231087Y137085D01*
X230971Y136500D01*
X231087Y135915D01*
X231419Y135419D01*
X231915Y135087D01*
X232500Y134971D01*
X233085Y135087D01*
X233581Y135419D01*
X233913Y135915D01*
X234029Y136500D01*
X233913Y137085D01*
X234220Y137526D01*
X234500Y137471D01*
X234780Y137526D01*
X235087Y137085D01*
X234971Y136500D01*
X235087Y135915D01*
X235419Y135419D01*
X235915Y135087D01*
X236500Y134971D01*
X237085Y135087D01*
X237581Y135419D01*
X237913Y135915D01*
X238029Y136500D01*
X237913Y137085D01*
X237742Y137342D01*
X237803Y137946D01*
X237841Y138009D01*
X237867Y138027D01*
X253223Y153383D01*
X253522Y153830D01*
X253626Y154356D01*
X253626Y154356D01*
Y155724D01*
X254127Y156045D01*
X254500Y155971D01*
X255085Y156087D01*
X255581Y156419D01*
X255913Y156915D01*
X256029Y157500D01*
X255913Y158085D01*
X255581Y158581D01*
X255085Y158913D01*
X254500Y159029D01*
X254127Y158955D01*
X253626Y159276D01*
Y160724D01*
X254127Y161045D01*
X254500Y160971D01*
X255085Y161087D01*
X255581Y161419D01*
X255913Y161915D01*
X256029Y162500D01*
X255913Y163085D01*
X255581Y163581D01*
X255085Y163913D01*
X254500Y164029D01*
X254127Y163955D01*
X253626Y164276D01*
Y165724D01*
X254127Y166045D01*
X254500Y165971D01*
X255085Y166087D01*
X255581Y166419D01*
X255913Y166915D01*
X256029Y167500D01*
X255913Y168085D01*
X255581Y168581D01*
X255085Y168913D01*
X254500Y169029D01*
X254127Y168955D01*
X253626Y169276D01*
Y170724D01*
X254127Y171045D01*
X254500Y170971D01*
X255085Y171087D01*
X255581Y171419D01*
X255913Y171915D01*
X256029Y172500D01*
X255913Y173085D01*
X255581Y173581D01*
X255085Y173913D01*
X254500Y174029D01*
X254127Y173955D01*
X253626Y174276D01*
Y175724D01*
X254127Y176045D01*
X254500Y175971D01*
X255085Y176087D01*
X255581Y176419D01*
X255913Y176915D01*
X256029Y177500D01*
X255913Y178085D01*
X255581Y178581D01*
X255085Y178913D01*
X254500Y179029D01*
X253915Y178913D01*
X253386Y179161D01*
X253223Y179405D01*
X251719Y180909D01*
X251581Y181419D01*
X251913Y181915D01*
X252029Y182500D01*
X251913Y183085D01*
X251665Y183457D01*
X251822Y183877D01*
X251886Y183957D01*
X252831D01*
Y188000D01*
X250453D01*
Y188500D01*
X249953D01*
Y193043D01*
X240005D01*
Y198380D01*
X227000D01*
Y198756D01*
X207500D01*
X207091Y198586D01*
X206619Y198776D01*
Y201925D01*
X206435Y202851D01*
X205911Y203635D01*
X205126Y204159D01*
X204201Y204343D01*
X203275Y204159D01*
X202491Y203635D01*
X201967Y202851D01*
X201783Y201925D01*
Y198776D01*
X201967Y197850D01*
X202491Y197066D01*
X203275Y196542D01*
X204201Y196358D01*
X205126Y196542D01*
X205911Y197066D01*
X206351Y197724D01*
X206851Y197573D01*
Y191199D01*
X206351Y191048D01*
X205911Y191706D01*
X205126Y192230D01*
X204201Y192414D01*
X203275Y192230D01*
X202491Y191706D01*
X201967Y190921D01*
X201783Y189996D01*
Y184091D01*
X201967Y183165D01*
X202491Y182381D01*
X203275Y181857D01*
X204201Y181672D01*
X205126Y181857D01*
X205911Y182381D01*
X206351Y183039D01*
X206851Y182887D01*
Y166297D01*
X206912Y166149D01*
X206927Y165990D01*
X207146Y165581D01*
X206812Y165226D01*
X204194Y162608D01*
X203841Y162079D01*
X203717Y161454D01*
Y160226D01*
X202510D01*
Y158057D01*
X202010Y157855D01*
X201624Y158114D01*
X201000Y158238D01*
X200376Y158114D01*
X200281Y158050D01*
X199781Y158317D01*
Y159978D01*
X196219D01*
Y159879D01*
X195719Y159486D01*
X195500Y159529D01*
X194915Y159413D01*
X194876Y159387D01*
X194376Y159655D01*
Y164006D01*
X194459Y164041D01*
X194649Y164500D01*
Y176500D01*
X194459Y176959D01*
X194300Y177025D01*
Y177100D01*
X194288Y177102D01*
X194207Y177573D01*
X194213Y177603D01*
X194280Y177616D01*
X194942Y178058D01*
X196970Y180086D01*
X197412Y180748D01*
X197510Y181242D01*
X198047Y181485D01*
X198152Y181415D01*
X198886Y181269D01*
X199619Y181415D01*
X200241Y181830D01*
X200656Y182452D01*
X200802Y183185D01*
X200656Y183918D01*
X200241Y184540D01*
X199619Y184956D01*
X198886Y185101D01*
X198152Y184956D01*
X198020Y184867D01*
X197579Y185102D01*
Y186583D01*
X198020Y186818D01*
X198152Y186730D01*
X198886Y186584D01*
X199619Y186730D01*
X200241Y187145D01*
X200656Y187767D01*
X200802Y188500D01*
X200656Y189233D01*
X200241Y189855D01*
X199619Y190270D01*
X198886Y190416D01*
X198152Y190270D01*
X197607Y189906D01*
X197317Y189855D01*
X197039D01*
X196981Y189942D01*
X196320Y190384D01*
X195539Y190539D01*
X194759Y190384D01*
X194097Y189942D01*
X194039Y189855D01*
X193762D01*
X193472Y189906D01*
X193185Y190098D01*
X193156Y190237D01*
X193219Y190676D01*
X193581Y190919D01*
X193913Y191415D01*
X194029Y192000D01*
X193913Y192585D01*
X193581Y193081D01*
X193085Y193413D01*
X192500Y193529D01*
X191915Y193413D01*
X191419Y193081D01*
X191087Y192585D01*
X190971Y192000D01*
X191087Y191415D01*
X191419Y190919D01*
X191587Y190806D01*
X191482Y190275D01*
X191460Y190270D01*
X190838Y189855D01*
X190770Y189753D01*
X190270D01*
X190201Y189855D01*
X189764Y190147D01*
Y191154D01*
X189694Y191505D01*
X189495Y191802D01*
X185449Y195849D01*
X185151Y196048D01*
X184800Y196118D01*
X171308D01*
X171185Y196618D01*
X171855Y197066D01*
X172380Y197850D01*
X172564Y198776D01*
Y201925D01*
X172380Y202851D01*
X171855Y203635D01*
X171071Y204159D01*
X170146Y204343D01*
X169220Y204159D01*
X168436Y203635D01*
X167912Y202851D01*
X167728Y201925D01*
Y198776D01*
X167912Y197850D01*
X168436Y197066D01*
X169106Y196618D01*
X168984Y196118D01*
X167937D01*
X167586Y196048D01*
X167288Y195849D01*
X157057Y185618D01*
X156463D01*
X156214Y186118D01*
X156413Y186415D01*
X156529Y187000D01*
X156413Y187585D01*
X156081Y188081D01*
X155585Y188413D01*
X155000Y188529D01*
X154415Y188413D01*
X153919Y188081D01*
X153587Y187585D01*
X153471Y187000D01*
X153587Y186415D01*
X153786Y186118D01*
X153537Y185618D01*
X136746D01*
X136394Y185548D01*
X136097Y185349D01*
X125403Y174655D01*
X124933Y174766D01*
X124794Y175225D01*
X124964Y175340D01*
X125081Y175419D01*
X125413Y175915D01*
X125529Y176500D01*
X125413Y177085D01*
X125081Y177581D01*
X124585Y177913D01*
X124000Y178029D01*
X123415Y177913D01*
X122919Y177581D01*
X122809Y177417D01*
X122460Y177348D01*
X122319Y177254D01*
X121870Y177381D01*
X121768Y177462D01*
X121748Y177563D01*
X121485Y177957D01*
X121091Y178220D01*
X121033Y178720D01*
X121231Y179016D01*
X121585Y179087D01*
X122081Y179419D01*
X122413Y179915D01*
X122529Y180500D01*
X122518Y180557D01*
X122943Y180982D01*
X123000Y180971D01*
X123585Y181087D01*
X124081Y181419D01*
X124413Y181915D01*
X124529Y182500D01*
X124413Y183085D01*
X124081Y183581D01*
X123585Y183913D01*
X123000Y184029D01*
X122697Y184278D01*
Y189221D01*
X122627Y189572D01*
X122428Y189870D01*
X116177Y196120D01*
X116369Y196582D01*
X122219D01*
Y195719D01*
X125781D01*
Y196128D01*
X126095Y196474D01*
X126524Y196559D01*
X126888Y196802D01*
X127087Y197001D01*
X127511Y196718D01*
X127306Y196222D01*
X127211Y195500D01*
X127306Y194778D01*
X127585Y194105D01*
X128028Y193528D01*
X128061Y193502D01*
Y193002D01*
X127743Y192757D01*
X127235Y192096D01*
X126916Y191326D01*
X126906Y191250D01*
X130000D01*
Y190500D01*
X130750D01*
Y187406D01*
X130826Y187416D01*
X131596Y187735D01*
X132257Y188242D01*
X132502Y188561D01*
X133002D01*
X133028Y188528D01*
X133605Y188084D01*
X134278Y187806D01*
X135000Y187711D01*
X135722Y187806D01*
X136395Y188084D01*
X136972Y188528D01*
X137186Y188807D01*
X137814D01*
X138028Y188528D01*
X138605Y188084D01*
X139278Y187806D01*
X140000Y187711D01*
X140722Y187806D01*
X141395Y188084D01*
X141972Y188528D01*
X142186Y188807D01*
X142814D01*
X143028Y188528D01*
X143605Y188084D01*
X144278Y187806D01*
X145000Y187711D01*
X145722Y187806D01*
X146395Y188084D01*
X146972Y188528D01*
X147186Y188807D01*
X147814D01*
X148028Y188528D01*
X148605Y188084D01*
X149278Y187806D01*
X150000Y187711D01*
X150722Y187806D01*
X151395Y188084D01*
X151972Y188528D01*
X152416Y189105D01*
X152694Y189778D01*
X152789Y190500D01*
X152694Y191222D01*
X152416Y191895D01*
X151972Y192472D01*
X151693Y192686D01*
Y193314D01*
X151972Y193528D01*
X152416Y194105D01*
X152694Y194778D01*
X152789Y195500D01*
X152694Y196222D01*
X152416Y196895D01*
X151972Y197472D01*
X151395Y197915D01*
X150722Y198194D01*
X150000Y198289D01*
X149278Y198194D01*
X148605Y197915D01*
X148028Y197472D01*
X147814Y197193D01*
X147186D01*
X146972Y197472D01*
X146395Y197915D01*
X146122Y198029D01*
Y198500D01*
X146122Y198500D01*
X146036Y198929D01*
X145793Y199293D01*
X145793Y199293D01*
X143605Y201482D01*
X143769Y202024D01*
X144085Y202087D01*
X144581Y202419D01*
X144913Y202915D01*
X145029Y203500D01*
X144913Y204085D01*
X144581Y204581D01*
X144085Y204913D01*
X143500Y205029D01*
X142915Y204913D01*
X142419Y204581D01*
X142087Y204085D01*
X141971Y203500D01*
X142087Y202915D01*
X142216Y202722D01*
X141949Y202222D01*
X138551D01*
X138284Y202722D01*
X138413Y202915D01*
X138529Y203500D01*
X138413Y204085D01*
X138081Y204581D01*
X137585Y204913D01*
X137000Y205029D01*
X136415Y204913D01*
X135919Y204581D01*
X135587Y204085D01*
X135471Y203500D01*
X135587Y202915D01*
X135716Y202722D01*
X135449Y202222D01*
X132051D01*
X131784Y202722D01*
X131913Y202915D01*
X132029Y203500D01*
X131913Y204085D01*
X131581Y204581D01*
X131085Y204913D01*
X130500Y205029D01*
X129915Y204913D01*
X129419Y204581D01*
X129087Y204085D01*
X128971Y203500D01*
X129087Y202915D01*
X129216Y202722D01*
X128949Y202222D01*
X125781D01*
Y202478D01*
X122219D01*
Y198418D01*
X115880D01*
X112649Y201649D01*
X112351Y201848D01*
X112000Y201918D01*
X105191D01*
X105081Y202081D01*
X104585Y202413D01*
X104000Y202529D01*
X103415Y202413D01*
X102919Y202081D01*
X102801Y201905D01*
X102199D01*
X102081Y202081D01*
X101585Y202413D01*
X101000Y202529D01*
X100415Y202413D01*
X99919Y202081D01*
X99587Y201585D01*
X99559Y201446D01*
X99017Y201281D01*
X94849Y205449D01*
X94802Y205481D01*
X94953Y205980D01*
X225796D01*
X226066Y205481D01*
X225971Y205000D01*
X226087Y204415D01*
X226419Y203919D01*
X226915Y203587D01*
X227500Y203471D01*
X228085Y203587D01*
X228581Y203919D01*
X228913Y204415D01*
X229029Y205000D01*
X228934Y205481D01*
X229205Y205980D01*
X251295D01*
X251566Y205481D01*
X251471Y205000D01*
X251587Y204415D01*
X251919Y203919D01*
X252415Y203587D01*
X253000Y203471D01*
X253585Y203587D01*
X254081Y203919D01*
X254413Y204415D01*
X254529Y205000D01*
X254434Y205481D01*
X254704Y205980D01*
X276796D01*
X277066Y205481D01*
X276971Y205000D01*
X277087Y204415D01*
X277419Y203919D01*
X277915Y203587D01*
X278500Y203471D01*
X279085Y203587D01*
X279581Y203919D01*
X279913Y204415D01*
X280029Y205000D01*
X279934Y205481D01*
X280205Y205980D01*
X289294D01*
X289869Y205866D01*
D02*
G37*
G36*
X80653Y205481D02*
X80606Y205449D01*
X78874Y203718D01*
X69254D01*
X68903Y203648D01*
X68606Y203449D01*
X67489Y202332D01*
X60427D01*
Y204021D01*
X52731D01*
Y202272D01*
X45269D01*
Y204021D01*
X37573D01*
Y198813D01*
X37573Y198687D01*
Y198313D01*
X37573Y198187D01*
Y192979D01*
X45269D01*
Y193629D01*
X45769Y194017D01*
X46000Y193971D01*
X46585Y194087D01*
X47081Y194419D01*
X47413Y194915D01*
X47529Y195500D01*
X47413Y196085D01*
X47081Y196581D01*
X46585Y196913D01*
X46000Y197029D01*
X45769Y196984D01*
X45269Y197371D01*
Y198187D01*
X45269Y198313D01*
Y198687D01*
X45269Y198813D01*
Y200437D01*
X52731D01*
Y198813D01*
X52731Y198687D01*
Y198313D01*
X52731Y198187D01*
Y197371D01*
X52231Y196984D01*
X52000Y197029D01*
X51415Y196913D01*
X50919Y196581D01*
X50587Y196085D01*
X50471Y195500D01*
X50587Y194915D01*
X50919Y194419D01*
X51415Y194087D01*
X52000Y193971D01*
X52231Y194017D01*
X52731Y193629D01*
Y192979D01*
X60427D01*
Y198187D01*
X60427Y198313D01*
Y198687D01*
X60427Y198813D01*
Y200497D01*
X67869D01*
X68220Y200567D01*
X68518Y200766D01*
X69634Y201882D01*
X79254D01*
X79606Y201952D01*
X79903Y202151D01*
X80124Y202372D01*
X80702Y202243D01*
X80919Y201919D01*
Y201581D01*
X80587Y201085D01*
X80471Y200500D01*
X80587Y199915D01*
X80318Y199418D01*
X79380D01*
X78649Y200149D01*
X78351Y200348D01*
X78000Y200418D01*
X75191D01*
X75081Y200581D01*
X74585Y200913D01*
X74000Y201029D01*
X73415Y200913D01*
X72919Y200581D01*
X72587Y200085D01*
X72471Y199500D01*
X72587Y198915D01*
X72919Y198419D01*
X73036Y198340D01*
X73413Y198085D01*
X73163Y197699D01*
X73087Y197585D01*
X72971Y197000D01*
X73087Y196415D01*
X73419Y195919D01*
X73915Y195587D01*
X74500Y195471D01*
X75085Y195587D01*
X75581Y195919D01*
X75913Y196415D01*
X76029Y197000D01*
X75913Y197585D01*
X75581Y198081D01*
X75580Y198082D01*
X75732Y198582D01*
X77620D01*
X78351Y197851D01*
X78649Y197652D01*
X79000Y197582D01*
X80768D01*
X80920Y197082D01*
X80919Y197081D01*
X80587Y196585D01*
X80471Y196000D01*
X80587Y195415D01*
X80919Y194919D01*
Y194581D01*
X80587Y194085D01*
X80471Y193500D01*
X80587Y192915D01*
X80318Y192418D01*
X79380D01*
X78649Y193149D01*
X78351Y193348D01*
X78000Y193418D01*
X75191D01*
X75081Y193581D01*
X74585Y193913D01*
X74000Y194029D01*
X73415Y193913D01*
X72919Y193581D01*
X72587Y193085D01*
X72471Y192500D01*
X72587Y191915D01*
X72919Y191419D01*
Y191081D01*
X72587Y190585D01*
X72471Y190000D01*
X72587Y189415D01*
X72919Y188919D01*
X73415Y188587D01*
X74000Y188471D01*
X74585Y188587D01*
X75081Y188919D01*
X75413Y189415D01*
X75529Y190000D01*
X75413Y190585D01*
X75081Y191081D01*
Y191145D01*
X75511Y191582D01*
X77620D01*
X78351Y190851D01*
X78649Y190652D01*
X79000Y190582D01*
X80768D01*
X80920Y190082D01*
X80919Y190081D01*
X80587Y189585D01*
X80471Y189000D01*
X80587Y188415D01*
X80919Y187919D01*
Y187581D01*
X80587Y187085D01*
X80471Y186500D01*
X80587Y185915D01*
X80318Y185418D01*
X79380D01*
X78649Y186149D01*
X78351Y186348D01*
X78000Y186418D01*
X75191D01*
X75081Y186581D01*
X74585Y186913D01*
X74000Y187029D01*
X73415Y186913D01*
X72919Y186581D01*
X72587Y186085D01*
X72471Y185500D01*
X72587Y184915D01*
X72919Y184419D01*
X73095Y184301D01*
Y183699D01*
X72919Y183581D01*
X72587Y183085D01*
X72471Y182500D01*
X72587Y181915D01*
X72919Y181419D01*
X73415Y181087D01*
X74000Y180971D01*
X74585Y181087D01*
X75081Y181419D01*
X75413Y181915D01*
X75529Y182500D01*
X75413Y183085D01*
X75081Y183581D01*
X74905Y183699D01*
Y184201D01*
X75288Y184582D01*
X77620D01*
X78351Y183851D01*
X78649Y183652D01*
X79000Y183582D01*
X84000D01*
X84351Y183652D01*
X84649Y183851D01*
X85880Y185082D01*
X86984D01*
X87251Y184582D01*
X87212Y184523D01*
X87176Y184344D01*
X87001Y183999D01*
X86656Y183824D01*
X86477Y183788D01*
X86083Y183525D01*
X85820Y183131D01*
X85784Y182952D01*
X85609Y182607D01*
X85264Y182432D01*
X85085Y182396D01*
X84691Y182133D01*
X84428Y181739D01*
X84392Y181560D01*
X84217Y181215D01*
X83872Y181040D01*
X83693Y181004D01*
X83299Y180741D01*
X83036Y180347D01*
X83000Y180168D01*
X82825Y179823D01*
X82481Y179648D01*
X82301Y179612D01*
X81907Y179349D01*
X81644Y178955D01*
X81608Y178776D01*
X81433Y178431D01*
X81089Y178256D01*
X80909Y178220D01*
X80515Y177957D01*
X80252Y177563D01*
X80240Y177501D01*
X79982Y177329D01*
X79361Y177205D01*
X79259Y177137D01*
X81936Y174460D01*
X81582Y174106D01*
X81936Y173753D01*
X80789Y172606D01*
X81380Y172015D01*
X81215Y171473D01*
X80915Y171413D01*
X80419Y171081D01*
X80087Y170585D01*
X79971Y170000D01*
X79528Y169791D01*
X79472D01*
X79029Y170000D01*
X78913Y170585D01*
X78581Y171081D01*
X78085Y171413D01*
X77500Y171529D01*
X76915Y171413D01*
X76419Y171081D01*
X76087Y170585D01*
X75971Y170000D01*
X76087Y169415D01*
X76419Y168919D01*
X76915Y168587D01*
X77500Y168471D01*
X77557Y168482D01*
X77982Y168057D01*
X77971Y168000D01*
X78087Y167415D01*
X78419Y166919D01*
X78915Y166587D01*
X79500Y166471D01*
X79673Y166505D01*
X80075Y166103D01*
X79123Y165151D01*
X78860Y164758D01*
X78842Y164663D01*
X78299Y164499D01*
X63649Y179149D01*
X63351Y179348D01*
X63000Y179418D01*
X52177D01*
X51955Y179866D01*
X52103Y180059D01*
X52461Y180923D01*
X52583Y181850D01*
X52465Y182747D01*
X52474Y182883D01*
X52717Y183247D01*
X56293D01*
Y189565D01*
X41707D01*
Y183247D01*
X45283D01*
X45526Y182883D01*
X45535Y182747D01*
X45417Y181850D01*
X45539Y180923D01*
X45897Y180059D01*
X46466Y179316D01*
X47208Y178747D01*
X48073Y178389D01*
X48792Y178294D01*
X48991Y177786D01*
X46440Y175235D01*
X45978Y175427D01*
Y175758D01*
X36589D01*
Y173580D01*
X36136Y173289D01*
X36018Y173333D01*
X35781Y173554D01*
Y175978D01*
X35781D01*
X35478Y176347D01*
X35508Y176500D01*
X35392Y177085D01*
X35060Y177581D01*
X34564Y177913D01*
X33979Y178029D01*
X33394Y177913D01*
X32897Y177581D01*
X32566Y177085D01*
X32450Y176500D01*
X32488Y176306D01*
X32219Y175978D01*
X32219D01*
Y173181D01*
X31819D01*
Y171500D01*
X34000D01*
Y171000D01*
X34500D01*
Y168819D01*
X36181Y168819D01*
X36189Y168322D01*
Y167465D01*
X36589D01*
Y164271D01*
X36303Y163818D01*
X36303Y163818D01*
X35781D01*
Y164478D01*
X35701D01*
X35451Y164831D01*
X35405Y164978D01*
X35508Y165500D01*
X35392Y166085D01*
X35060Y166581D01*
X34564Y166913D01*
X33979Y167029D01*
X33394Y166913D01*
X32897Y166581D01*
X32566Y166085D01*
X32450Y165500D01*
X32553Y164978D01*
X32506Y164831D01*
X32256Y164478D01*
X32219D01*
Y161681D01*
X31819D01*
Y160000D01*
X34000D01*
Y159500D01*
X34500D01*
Y157319D01*
X36181D01*
X36589Y157097D01*
Y156473D01*
X36189D01*
Y154595D01*
X41284D01*
X46378D01*
Y156473D01*
X45978D01*
Y157114D01*
X47309D01*
X47419Y156950D01*
X47915Y156618D01*
X48500Y156502D01*
X49085Y156618D01*
X49581Y156950D01*
X49913Y157446D01*
X50029Y158031D01*
X49913Y158617D01*
X49581Y159113D01*
X49085Y159444D01*
X48500Y159561D01*
X47915Y159444D01*
X47419Y159113D01*
X47309Y158949D01*
X45978D01*
Y160149D01*
X46365Y160466D01*
X46500Y160439D01*
X47085Y160556D01*
X47581Y160887D01*
X47913Y161383D01*
X47969Y161666D01*
X47998Y161812D01*
X48508D01*
X48536Y161671D01*
X48587Y161415D01*
X48919Y160919D01*
X49415Y160587D01*
X50000Y160471D01*
X50585Y160587D01*
X51081Y160919D01*
X51413Y161415D01*
X51529Y162000D01*
X51413Y162585D01*
X51081Y163081D01*
X50585Y163413D01*
X50000Y163529D01*
X49415Y163413D01*
X48919Y163081D01*
X48587Y162585D01*
X48531Y162302D01*
X48502Y162157D01*
X47992D01*
X47964Y162298D01*
X47913Y162554D01*
X47581Y163050D01*
X47085Y163382D01*
X46500Y163498D01*
X46365Y163471D01*
X45978Y163788D01*
Y164988D01*
X47309D01*
X47419Y164824D01*
X47915Y164492D01*
X48500Y164376D01*
X49085Y164492D01*
X49581Y164824D01*
X49913Y165320D01*
X50029Y165905D01*
X49913Y166491D01*
X49581Y166987D01*
X49085Y167318D01*
X48500Y167435D01*
X47915Y167318D01*
X47419Y166987D01*
X47309Y166823D01*
X45978D01*
Y167465D01*
X46378D01*
Y169343D01*
X41284D01*
Y170343D01*
X46378D01*
Y172221D01*
X45978D01*
Y172862D01*
X46282D01*
X46633Y172932D01*
X46931Y173131D01*
X49488Y175688D01*
X50018Y175511D01*
X50087Y175163D01*
X50419Y174667D01*
X50915Y174335D01*
X51500Y174219D01*
X51635Y174246D01*
X52022Y173928D01*
Y170252D01*
X51622D01*
Y168374D01*
X56717D01*
X61811D01*
Y170252D01*
X61411D01*
Y170893D01*
X67612D01*
X68425Y170080D01*
X68117Y169681D01*
X67708Y169681D01*
X66500D01*
Y168000D01*
X68181D01*
Y169185D01*
X68181Y169617D01*
X68580Y169925D01*
X88154Y150351D01*
X88452Y150152D01*
X88803Y150082D01*
X89389D01*
X89581Y149620D01*
X87721Y147760D01*
Y147760D01*
X87383Y147391D01*
X86919Y147081D01*
X86587Y146585D01*
X86471Y146000D01*
X86587Y145415D01*
X86919Y144919D01*
X87415Y144587D01*
X88000Y144471D01*
X88585Y144587D01*
X89081Y144919D01*
X89165Y145044D01*
X89809Y145107D01*
X90604Y144311D01*
X92146Y145853D01*
X93689Y147396D01*
X92500Y148584D01*
X92217Y148302D01*
X90898Y149620D01*
X91090Y150082D01*
X91744D01*
X92095Y150152D01*
X92207Y150227D01*
X92691Y150074D01*
X92759Y150011D01*
X92780Y149909D01*
X93043Y149515D01*
X93437Y149252D01*
X93499Y149240D01*
X93671Y148982D01*
X93795Y148361D01*
X93863Y148259D01*
X96540Y150936D01*
X96894Y150582D01*
X97247Y150936D01*
X98394Y149789D01*
X99120Y150516D01*
X99582Y150324D01*
Y141418D01*
X98500D01*
X98149Y141348D01*
X97851Y141149D01*
X97483Y140781D01*
X95984D01*
Y141181D01*
X94303D01*
Y139000D01*
Y136819D01*
X95984D01*
Y137219D01*
X98781D01*
X98781Y137219D01*
Y137219D01*
X99274Y137135D01*
X99419Y136919D01*
X99915Y136587D01*
X100500Y136471D01*
X100693Y136509D01*
X101851Y135351D01*
X102149Y135152D01*
X102500Y135082D01*
X132697D01*
X133048Y135152D01*
X133346Y135351D01*
X135849Y137854D01*
X136048Y138152D01*
X136118Y138503D01*
Y145800D01*
X136048Y146151D01*
X135849Y146449D01*
X133810Y148487D01*
X133513Y148686D01*
X133161Y148756D01*
X131430D01*
X131327Y148910D01*
X130836Y149238D01*
X130256Y149354D01*
X126516D01*
X125936Y149238D01*
X125444Y148910D01*
X125116Y148418D01*
X125001Y147839D01*
X125116Y147259D01*
X125444Y146767D01*
Y146351D01*
X125380Y146254D01*
X124876Y146224D01*
X123781Y147320D01*
Y148819D01*
X124181D01*
Y150500D01*
X122000D01*
X119819D01*
Y148819D01*
X120219D01*
Y146022D01*
X122388D01*
X122583Y145776D01*
X122361Y145281D01*
X120219D01*
Y145091D01*
X119719Y144824D01*
X119585Y144913D01*
X119000Y145029D01*
X118415Y144913D01*
X117919Y144581D01*
X117587Y144085D01*
X117471Y143500D01*
X117587Y142915D01*
X117919Y142419D01*
X118415Y142087D01*
X119000Y141971D01*
X119319Y142034D01*
X119819Y141688D01*
Y140803D01*
X122000D01*
Y139803D01*
X119819D01*
Y138918D01*
X108191D01*
X108081Y139081D01*
X107585Y139413D01*
X107000Y139529D01*
X106807Y139491D01*
X102618Y143680D01*
Y150124D01*
X103080Y150316D01*
X103606Y149789D01*
X104753Y150936D01*
X105106Y150582D01*
X105460Y150936D01*
X108137Y148259D01*
X108205Y148361D01*
X108329Y148982D01*
X108501Y149240D01*
X108563Y149252D01*
X108957Y149515D01*
X109220Y149909D01*
X109256Y150089D01*
X109431Y150434D01*
X109776Y150608D01*
X109955Y150644D01*
X110349Y150907D01*
X110612Y151301D01*
X110648Y151480D01*
X110823Y151825D01*
X111168Y152000D01*
X111347Y152036D01*
X111741Y152299D01*
X112004Y152693D01*
X112040Y152873D01*
X112215Y153217D01*
X112560Y153392D01*
X112739Y153428D01*
X113133Y153691D01*
X113396Y154085D01*
X113432Y154264D01*
X113607Y154609D01*
X113952Y154784D01*
X114131Y154820D01*
X114525Y155083D01*
X114788Y155477D01*
X114808Y155579D01*
X115351Y155743D01*
X116242Y154853D01*
X116244Y154847D01*
X116151Y154236D01*
X115919Y154081D01*
X115587Y153585D01*
X115471Y153000D01*
X115587Y152415D01*
X115919Y151919D01*
X116415Y151587D01*
X117000Y151471D01*
X117585Y151587D01*
X118081Y151919D01*
X118413Y152415D01*
X118529Y153000D01*
X118413Y153585D01*
X118284Y153778D01*
X118551Y154278D01*
X119696D01*
X120047Y154348D01*
X120292Y154512D01*
X120500Y154471D01*
X121085Y154587D01*
X121581Y154919D01*
X121901Y155397D01*
X121958Y155465D01*
X122434Y155571D01*
X124425Y153580D01*
X124117Y153181D01*
X122500D01*
Y151500D01*
X124181D01*
Y153117D01*
X124580Y153425D01*
X124654Y153351D01*
X124952Y153152D01*
X125303Y153082D01*
X127809D01*
X127919Y152919D01*
X128415Y152587D01*
X129000Y152471D01*
X129585Y152587D01*
X130081Y152919D01*
X130191Y153082D01*
X133768D01*
X133920Y152582D01*
X133919Y152581D01*
X133587Y152085D01*
X133471Y151500D01*
X133587Y150915D01*
X133919Y150419D01*
X134415Y150087D01*
X135000Y149971D01*
X135585Y150087D01*
X136081Y150419D01*
X136306Y150755D01*
X136784Y150836D01*
X136899Y150811D01*
X137376Y150493D01*
X138000Y150369D01*
X138624Y150493D01*
X139154Y150847D01*
X139311Y151082D01*
X149500D01*
X149580Y151098D01*
X150011Y150704D01*
X149971Y150500D01*
X150087Y149915D01*
X150128Y149854D01*
X149861Y149354D01*
X149744D01*
X149164Y149238D01*
X148673Y148910D01*
X148345Y148418D01*
X148229Y147839D01*
X148345Y147259D01*
X148643Y146812D01*
X148384Y146639D01*
X147968Y146015D01*
X147921Y145780D01*
X151614D01*
X155308D01*
X155261Y146015D01*
X154844Y146639D01*
X154585Y146812D01*
X154884Y147259D01*
X154999Y147839D01*
X154884Y148418D01*
X154555Y148910D01*
X154064Y149238D01*
X153484Y149354D01*
X153139D01*
X152872Y149854D01*
X152913Y149915D01*
X153024Y150471D01*
X153140Y150548D01*
X153499Y150704D01*
X158622Y145581D01*
X158919Y145382D01*
X159219Y145322D01*
Y141022D01*
X159219D01*
X159473Y140522D01*
X159369Y140000D01*
X159493Y139376D01*
X159846Y138847D01*
X160376Y138493D01*
X161000Y138369D01*
X161624Y138493D01*
X162153Y138847D01*
X162507Y139376D01*
X162631Y140000D01*
X162528Y140522D01*
X162781Y141022D01*
X162781D01*
Y145082D01*
X163404D01*
Y143869D01*
X168344D01*
Y144698D01*
X168844Y144850D01*
X168846Y144846D01*
X169376Y144493D01*
X170000Y144369D01*
X170624Y144493D01*
X171153Y144846D01*
X171507Y145376D01*
X171631Y146000D01*
X171507Y146624D01*
X171153Y147153D01*
X170624Y147507D01*
X170000Y147631D01*
X169376Y147507D01*
X168853Y147158D01*
X168344D01*
Y148612D01*
X168344D01*
X168118Y149076D01*
X168122Y149112D01*
X168581Y149419D01*
X168913Y149915D01*
X169029Y150500D01*
X169020Y150545D01*
X169338Y150932D01*
X169419D01*
Y156069D01*
X163888D01*
Y150932D01*
X163888Y150932D01*
X163971Y150500D01*
X163977Y150470D01*
X163977Y150468D01*
X163980Y150451D01*
X164087Y149915D01*
X164419Y149419D01*
X164878Y149112D01*
X164882Y149076D01*
X164576Y148612D01*
X163404D01*
Y146918D01*
X162781D01*
Y147781D01*
X159219D01*
X159219Y147781D01*
Y147781D01*
X158806Y147992D01*
X154177Y152620D01*
X154369Y153082D01*
X159529D01*
X159880Y153152D01*
X160178Y153351D01*
X164149Y157322D01*
X164348Y157620D01*
X164418Y157971D01*
Y168666D01*
X165135Y169382D01*
X168274D01*
X169106Y168551D01*
X169403Y168352D01*
X169754Y168282D01*
X171700D01*
X172051Y168352D01*
X172349Y168551D01*
X174889Y171091D01*
X175088Y171389D01*
X175096Y171432D01*
X175923D01*
Y176568D01*
X172557D01*
Y176568D01*
X172183D01*
Y176568D01*
X169029D01*
X168771Y176987D01*
X168762Y177068D01*
X168771Y177082D01*
X177620D01*
X179351Y175351D01*
X179649Y175152D01*
X180000Y175082D01*
X180173D01*
Y174000D01*
X180280Y173191D01*
X180592Y172437D01*
X180700Y172296D01*
Y171418D01*
X178000D01*
X177649Y171348D01*
X177351Y171149D01*
X174146Y167944D01*
X172526D01*
X172175Y167874D01*
X171877Y167675D01*
X169277Y165075D01*
X168442D01*
Y166726D01*
X165077D01*
Y161589D01*
X168442D01*
Y163240D01*
X169658D01*
X170009Y163310D01*
X170306Y163509D01*
X171696Y164898D01*
X172158Y164707D01*
Y164657D01*
X176323D01*
Y167126D01*
X176323D01*
X176206Y167408D01*
X178380Y169582D01*
X179957D01*
X180164Y169082D01*
X178041Y166959D01*
X177851Y166500D01*
Y153000D01*
X178041Y152541D01*
X179385Y151196D01*
Y147781D01*
X178522D01*
Y144219D01*
X182582D01*
Y140781D01*
X178522D01*
Y140781D01*
X178254Y140670D01*
X177596Y141328D01*
Y144872D01*
X172656D01*
Y140128D01*
X176200D01*
X177925Y138404D01*
X178222Y138205D01*
X178522Y138145D01*
Y137219D01*
X185281D01*
Y140781D01*
X184418D01*
Y144219D01*
X185281D01*
Y147781D01*
X184786D01*
X184579Y148281D01*
X185880Y149582D01*
X188219D01*
Y145522D01*
X191781D01*
Y146112D01*
X192281Y146272D01*
X193070Y145483D01*
X192879Y145021D01*
X189526D01*
Y134019D01*
X56647D01*
X56293Y134372D01*
X56293Y134520D01*
Y140691D01*
X52930D01*
X52789Y140902D01*
X52664Y141191D01*
X52782Y142087D01*
X52653Y143066D01*
X52275Y143978D01*
X51674Y144761D01*
X50891Y145362D01*
X49979Y145740D01*
X49000Y145869D01*
X48021Y145740D01*
X47109Y145362D01*
X46326Y144761D01*
X45725Y143978D01*
X45347Y143066D01*
X45218Y142087D01*
X45336Y141191D01*
X45211Y140902D01*
X45070Y140691D01*
X41707D01*
Y134520D01*
X41707Y134372D01*
X41353Y134019D01*
X33706D01*
X33131Y134134D01*
X32588Y134359D01*
X32100Y134685D01*
X31685Y135100D01*
X31359Y135588D01*
X31134Y136131D01*
X31019Y136706D01*
Y137000D01*
Y203000D01*
Y203294D01*
X31134Y203869D01*
X31359Y204412D01*
X31685Y204900D01*
X32100Y205315D01*
X32588Y205641D01*
X33131Y205866D01*
X33707Y205980D01*
X64796D01*
X65066Y205481D01*
X64971Y205000D01*
X65087Y204415D01*
X65419Y203919D01*
X65915Y203587D01*
X66500Y203471D01*
X67085Y203587D01*
X67581Y203919D01*
X67913Y204415D01*
X68029Y205000D01*
X67934Y205481D01*
X68204Y205980D01*
X80501D01*
X80653Y205481D01*
D02*
G37*
G36*
X180587Y192585D02*
X180559Y192446D01*
X180518Y192387D01*
X179981Y192094D01*
X179843Y192122D01*
X179843Y192122D01*
X174595D01*
X174166Y192036D01*
X173802Y191793D01*
X173802Y191793D01*
X172864Y190855D01*
X172317Y191015D01*
X171855Y191706D01*
X171071Y192230D01*
X170146Y192414D01*
X169220Y192230D01*
X168436Y191706D01*
X167912Y190921D01*
X167728Y189996D01*
Y184091D01*
X167912Y183165D01*
X168275Y182622D01*
X168008Y182122D01*
X164465D01*
X163793Y182793D01*
X163429Y183036D01*
X163387Y183045D01*
X163348Y183092D01*
X163197Y183592D01*
X163413Y183915D01*
X163529Y184500D01*
X163413Y185085D01*
X163081Y185581D01*
X162585Y185913D01*
X162446Y185941D01*
X162281Y186483D01*
X168880Y193082D01*
X180318D01*
X180587Y192585D01*
D02*
G37*
G36*
X99334Y198368D02*
X99632Y198169D01*
X99983Y198099D01*
X111603D01*
X114209Y195493D01*
X113979Y195029D01*
X113394Y194913D01*
X112898Y194581D01*
X112539Y194546D01*
X111896Y195189D01*
X110354Y193647D01*
X108811Y192104D01*
X110000Y190916D01*
X110283Y191198D01*
X112260Y189221D01*
X114779Y191739D01*
Y191739D01*
X114909Y192317D01*
X115060Y192419D01*
X115392Y192915D01*
X115508Y193500D01*
X115972Y193730D01*
X120209Y189494D01*
X119979Y189029D01*
X119394Y188913D01*
X118898Y188581D01*
X118538Y188546D01*
X117635Y189449D01*
X116093Y187907D01*
X114551Y186365D01*
X115740Y185176D01*
X116022Y185459D01*
X118000Y183481D01*
X120361Y185843D01*
X120861Y185635D01*
Y184205D01*
X118134Y181477D01*
X117591Y181642D01*
X117572Y181739D01*
X117309Y182133D01*
X116915Y182396D01*
X116736Y182432D01*
X116391Y182607D01*
X116216Y182952D01*
X116180Y183131D01*
X115917Y183525D01*
X115523Y183788D01*
X115344Y183824D01*
X114999Y183999D01*
X114824Y184344D01*
X114788Y184523D01*
X114525Y184917D01*
X114131Y185180D01*
X114069Y185193D01*
X113897Y185451D01*
X113773Y186071D01*
X113705Y186173D01*
X111028Y183496D01*
X108040Y180509D01*
X108025Y180435D01*
X107915Y180413D01*
X107419Y180081D01*
X107087Y179585D01*
X106971Y179000D01*
X107087Y178415D01*
X107419Y177919D01*
X107915Y177587D01*
X108500Y177471D01*
X109085Y177587D01*
X109581Y177919D01*
X109913Y178415D01*
X109969Y178695D01*
X110322Y178946D01*
X110848Y178832D01*
X110999Y178607D01*
X111393Y178344D01*
X111572Y178308D01*
X111917Y178133D01*
X112092Y177788D01*
X112128Y177609D01*
X112391Y177215D01*
X112785Y176952D01*
X112964Y176916D01*
X113309Y176741D01*
X113484Y176396D01*
X113520Y176217D01*
X113659Y176007D01*
X113590Y175799D01*
X113416Y175513D01*
X112915Y175413D01*
X112419Y175081D01*
X112087Y174585D01*
X111971Y174000D01*
X112087Y173415D01*
X112419Y172919D01*
X112915Y172587D01*
X113500Y172471D01*
X113986Y172567D01*
X114142Y172546D01*
X114516Y172273D01*
X114587Y171915D01*
X114318Y171418D01*
X96682D01*
X96413Y171915D01*
X96529Y172500D01*
X96413Y173085D01*
X96081Y173581D01*
X95918Y173691D01*
Y174687D01*
X95858Y174989D01*
X95893Y175109D01*
X96141Y175499D01*
X96585Y175587D01*
X97081Y175919D01*
X97413Y176415D01*
X97529Y177000D01*
X97413Y177585D01*
X97081Y178081D01*
X96585Y178413D01*
X96000Y178529D01*
X95415Y178413D01*
X94919Y178081D01*
X94587Y177585D01*
X94507Y177184D01*
X94020Y176988D01*
X93997Y176988D01*
X91799Y179186D01*
X91963Y179728D01*
X91999Y179736D01*
X92393Y179999D01*
X92656Y180393D01*
X92692Y180572D01*
X92867Y180917D01*
X93212Y181092D01*
X93391Y181128D01*
X93785Y181391D01*
X94048Y181785D01*
X94084Y181964D01*
X94259Y182309D01*
X94604Y182484D01*
X94783Y182520D01*
X95177Y182783D01*
X95440Y183177D01*
X95476Y183356D01*
X95651Y183701D01*
X95996Y183876D01*
X96175Y183912D01*
X96569Y184175D01*
X96832Y184569D01*
X96868Y184748D01*
X97043Y185093D01*
X97388Y185268D01*
X97567Y185303D01*
X97961Y185567D01*
X98224Y185960D01*
X98260Y186140D01*
X98435Y186485D01*
X98779Y186660D01*
X98959Y186695D01*
X99353Y186959D01*
X99616Y187352D01*
X99708Y187817D01*
X99616Y188281D01*
X99353Y188675D01*
X96151Y191877D01*
X95758Y192140D01*
X95398Y192211D01*
X88460Y199149D01*
X88162Y199348D01*
X87811Y199418D01*
X83682D01*
X83413Y199915D01*
X83529Y200500D01*
X83413Y201085D01*
X83081Y201581D01*
Y201645D01*
X83511Y202082D01*
X89666D01*
X100582Y191165D01*
Y184500D01*
X100652Y184149D01*
X100851Y183851D01*
X102060Y182642D01*
X102357Y182444D01*
X102709Y182374D01*
X104439D01*
X104790Y182444D01*
X105088Y182642D01*
X105689Y183244D01*
X106167Y183099D01*
X106183Y183020D01*
X106251Y182918D01*
X108929Y185595D01*
X111606Y188272D01*
X111503Y188341D01*
X110883Y188464D01*
X110625Y188637D01*
X110612Y188699D01*
X110349Y189093D01*
X109955Y189356D01*
X109776Y189392D01*
X109431Y189567D01*
X109256Y189911D01*
X109220Y190091D01*
X108957Y190485D01*
X108563Y190748D01*
X108501Y190760D01*
X108329Y191018D01*
X108205Y191639D01*
X108137Y191741D01*
X105460Y189064D01*
X105106Y189418D01*
X104753Y189064D01*
X103606Y190211D01*
X102880Y189484D01*
X102418Y189676D01*
Y191546D01*
X102348Y191897D01*
X102149Y192194D01*
X90961Y203382D01*
X91168Y203882D01*
X93820D01*
X99334Y198368D01*
D02*
G37*
G36*
X290163Y182120D02*
Y178076D01*
X289702Y177885D01*
X288912Y178675D01*
X288614Y178874D01*
X288263Y178944D01*
X276812D01*
X276631Y179444D01*
X277103Y180059D01*
X277461Y180923D01*
X277583Y181850D01*
X277465Y182747D01*
X277474Y182883D01*
X277717Y183247D01*
X281293D01*
Y189082D01*
X283201D01*
X290163Y182120D01*
D02*
G37*
G36*
X266707Y183247D02*
X270283D01*
X270526Y182883D01*
X270535Y182747D01*
X270417Y181850D01*
X270539Y180923D01*
X270897Y180059D01*
X271466Y179316D01*
X272208Y178747D01*
X272382Y178675D01*
X272283Y178175D01*
X261319D01*
X260968Y178105D01*
X260670Y177906D01*
X259994Y177230D01*
X259451Y177394D01*
X259413Y177585D01*
X259081Y178081D01*
X258918Y178191D01*
Y182620D01*
X265380Y189082D01*
X266707D01*
Y183247D01*
D02*
G37*
G36*
X141603Y175799D02*
Y173419D01*
X141364Y173139D01*
X141152Y172999D01*
X141000Y173029D01*
X140415Y172913D01*
X140085Y172693D01*
X139665Y172422D01*
X139168Y172753D01*
X138583Y172870D01*
X137998Y172753D01*
X137502Y172422D01*
X137170Y171925D01*
X137054Y171340D01*
X137170Y170755D01*
X137207Y170700D01*
Y169610D01*
X137311Y169083D01*
X137432Y168903D01*
Y165428D01*
X142404D01*
X142733Y164996D01*
X142629Y164665D01*
X140500D01*
Y161500D01*
Y158335D01*
X142968D01*
Y161238D01*
X143468Y161445D01*
X144707Y160207D01*
X145071Y159964D01*
X145500Y159878D01*
X145500Y159878D01*
X146093D01*
Y159554D01*
X146225D01*
X146368Y159206D01*
X146400Y159054D01*
X146087Y158585D01*
X145971Y158000D01*
X146087Y157415D01*
X146419Y156919D01*
X146915Y156587D01*
X147500Y156471D01*
X148085Y156587D01*
X148581Y156919D01*
X148913Y157415D01*
X148995Y157828D01*
X149505D01*
X149587Y157415D01*
X149919Y156919D01*
X150415Y156587D01*
X151000Y156471D01*
X151585Y156587D01*
X152081Y156919D01*
X152199Y157095D01*
X152801D01*
X152919Y156919D01*
X153415Y156587D01*
X154000Y156471D01*
X154585Y156587D01*
X155081Y156919D01*
X155413Y157415D01*
X155529Y158000D01*
X155413Y158585D01*
X155100Y159054D01*
X155132Y159206D01*
X155275Y159554D01*
X158907D01*
Y162328D01*
X159386Y162378D01*
X159500D01*
X159500Y162378D01*
X159929Y162464D01*
X160293Y162707D01*
X162082Y164496D01*
X162582Y164289D01*
Y158351D01*
X159149Y154918D01*
X139682D01*
X139413Y155415D01*
X139529Y156000D01*
X139413Y156585D01*
X139081Y157081D01*
X138585Y157413D01*
X138000Y157529D01*
X137415Y157413D01*
X136919Y157081D01*
X136587Y156585D01*
X136471Y156000D01*
X136587Y155415D01*
X136318Y154918D01*
X135731D01*
X135529Y155296D01*
X135515Y155418D01*
X135631Y156000D01*
X135507Y156624D01*
X135153Y157153D01*
X134624Y157507D01*
X134000Y157631D01*
X133376Y157507D01*
X132846Y157153D01*
X132689Y156918D01*
X127682D01*
X127413Y157415D01*
X127529Y158000D01*
X127413Y158585D01*
X127081Y159081D01*
X126585Y159413D01*
X126447Y159440D01*
X126029Y159901D01*
X125991Y160095D01*
X132649Y166753D01*
X132848Y167050D01*
X132918Y167402D01*
Y168620D01*
X139807Y175509D01*
X140000Y175471D01*
X140585Y175587D01*
X141081Y175919D01*
X141103Y175951D01*
X141603Y175799D01*
D02*
G37*
G36*
X277022Y173770D02*
Y169833D01*
Y165568D01*
X276500D01*
X275876Y165444D01*
X275346Y165091D01*
X275068Y164673D01*
X274568Y164792D01*
Y174670D01*
X274498Y175021D01*
X274299Y175319D01*
X273740Y175878D01*
X273931Y176340D01*
X274758D01*
X275109Y176410D01*
X275406Y176609D01*
X275906Y177108D01*
X277022D01*
Y173770D01*
D02*
G37*
G36*
X194000Y164500D02*
X188500D01*
X188500Y175500D01*
X189500Y176500D01*
X194000Y176500D01*
Y164500D01*
D02*
G37*
G36*
X223500Y196000D02*
X223500D01*
X223500Y167606D01*
X232500Y167606D01*
X232500Y156606D01*
X212000D01*
X212000Y161606D01*
X208740D01*
X208495Y162106D01*
X208665Y162325D01*
X211281D01*
Y165887D01*
X207719D01*
X207500Y166297D01*
Y198106D01*
X223500D01*
X223500Y196000D01*
D02*
G37*
G36*
X117572Y168122D02*
X117680Y167882D01*
X117660Y167780D01*
X117485Y167435D01*
X117140Y167260D01*
X116960Y167224D01*
X116567Y166961D01*
X116303Y166567D01*
X116268Y166388D01*
X116093Y166043D01*
X115748Y165868D01*
X115568Y165832D01*
X115175Y165569D01*
X114911Y165175D01*
X114876Y164996D01*
X114701Y164651D01*
X114356Y164476D01*
X114176Y164440D01*
X113783Y164177D01*
X113520Y163783D01*
X113484Y163604D01*
X113309Y163259D01*
X112964Y163084D01*
X112785Y163048D01*
X112391Y162785D01*
X112128Y162391D01*
X112092Y162212D01*
X111917Y161867D01*
X111572Y161692D01*
X111393Y161656D01*
X110999Y161393D01*
X110736Y160999D01*
X110700Y160820D01*
X110525Y160475D01*
X110180Y160300D01*
X110001Y160264D01*
X109607Y160001D01*
X109344Y159607D01*
X109308Y159428D01*
X109133Y159083D01*
X108788Y158908D01*
X108609Y158872D01*
X108215Y158609D01*
X107952Y158215D01*
X107916Y158036D01*
X107741Y157691D01*
X107396Y157516D01*
X107217Y157480D01*
X106823Y157217D01*
X106560Y156824D01*
X106524Y156644D01*
X106349Y156299D01*
X106004Y156124D01*
X105825Y156088D01*
X105431Y155825D01*
X105168Y155431D01*
X105132Y155252D01*
X104957Y154907D01*
X104612Y154732D01*
X104433Y154697D01*
X104039Y154433D01*
X103776Y154040D01*
X103764Y153977D01*
X103506Y153805D01*
X103118Y153728D01*
X102618Y154058D01*
Y161800D01*
X102548Y162151D01*
X102349Y162449D01*
X96915Y167882D01*
X97123Y168382D01*
X117377D01*
X117572Y168122D01*
D02*
G37*
G36*
X187500Y151500D02*
X180000D01*
X178500Y153000D01*
Y166500D01*
X181000Y169000D01*
X187500D01*
Y151500D01*
D02*
G37*
G36*
X250500Y174606D02*
Y156106D01*
X236000Y141606D01*
X231500D01*
X225000Y148106D01*
Y155606D01*
X233000D01*
X240500Y163106D01*
Y174606D01*
X250500Y174606D01*
D02*
G37*
%LPC*%
G36*
X261300Y197500D02*
X258800D01*
Y194500D01*
X261300D01*
Y197500D01*
D02*
G37*
G36*
X257800D02*
X255300D01*
Y194500D01*
X257800D01*
Y197500D01*
D02*
G37*
G36*
X278500Y196029D02*
X277915Y195913D01*
X277419Y195581D01*
X277087Y195085D01*
X276971Y194500D01*
X277087Y193915D01*
X277419Y193419D01*
X277915Y193087D01*
X278500Y192971D01*
X279085Y193087D01*
X279581Y193419D01*
X279913Y193915D01*
X280029Y194500D01*
X279913Y195085D01*
X279581Y195581D01*
X279085Y195913D01*
X278500Y196029D01*
D02*
G37*
G36*
X261300Y193500D02*
X258800D01*
Y190500D01*
X261300D01*
Y193500D01*
D02*
G37*
G36*
X257800D02*
X255300D01*
Y190500D01*
X257800D01*
Y193500D01*
D02*
G37*
G36*
X253000Y196029D02*
X252415Y195913D01*
X251919Y195581D01*
X251587Y195085D01*
X251471Y194500D01*
X251587Y193915D01*
X251835Y193543D01*
X251678Y193123D01*
X251614Y193043D01*
X250953D01*
Y189000D01*
X252831D01*
X252831Y192832D01*
X253000Y192971D01*
X253114Y192993D01*
X253585Y193087D01*
X254081Y193419D01*
X254413Y193915D01*
X254529Y194500D01*
X254413Y195085D01*
X254081Y195581D01*
X253585Y195913D01*
X253000Y196029D01*
D02*
G37*
G36*
X129250Y189750D02*
X126906D01*
X126916Y189674D01*
X127235Y188904D01*
X127743Y188242D01*
X128404Y187735D01*
X129174Y187416D01*
X129250Y187406D01*
Y189750D01*
D02*
G37*
G36*
X260500Y147631D02*
X260068Y147612D01*
X260068Y147612D01*
X254931D01*
Y142081D01*
X259744D01*
X259876Y141993D01*
X260500Y141869D01*
X261124Y141993D01*
X261653Y142347D01*
X262007Y142876D01*
X262131Y143500D01*
X262007Y144124D01*
X261842Y144371D01*
X261692Y144750D01*
X261842Y145129D01*
X262007Y145376D01*
X262131Y146000D01*
X262007Y146624D01*
X261653Y147153D01*
X261124Y147507D01*
X260557Y147620D01*
X260500Y147631D01*
D02*
G37*
G36*
X260068Y140919D02*
X254931D01*
Y135388D01*
X260068D01*
X260068Y135388D01*
X260500Y135471D01*
X260530Y135477D01*
X260532Y135477D01*
X260549Y135480D01*
X261085Y135587D01*
X261581Y135919D01*
X261913Y136415D01*
X262029Y137000D01*
X261913Y137585D01*
X261636Y138000D01*
X261913Y138415D01*
X262029Y139000D01*
X261913Y139585D01*
X261581Y140081D01*
X261085Y140413D01*
X260500Y140529D01*
X260455Y140520D01*
X260068Y140838D01*
Y140919D01*
D02*
G37*
G36*
X34000Y204529D02*
X33415Y204413D01*
X32919Y204081D01*
X32587Y203585D01*
X32471Y203000D01*
X32587Y202415D01*
X32919Y201919D01*
X33415Y201587D01*
X34000Y201471D01*
X34585Y201587D01*
X35081Y201919D01*
X35413Y202415D01*
X35529Y203000D01*
X35413Y203585D01*
X35081Y204081D01*
X34585Y204413D01*
X34000Y204529D01*
D02*
G37*
G36*
X77261Y182845D02*
X76072Y181656D01*
X77261Y180468D01*
X78449Y181656D01*
X77261Y182845D01*
D02*
G37*
G36*
X79156Y180949D02*
X77968Y179761D01*
X79156Y178572D01*
X80345Y179761D01*
X79156Y180949D01*
D02*
G37*
G36*
X75365Y180949D02*
X74176Y179761D01*
X74459Y179478D01*
X72481Y177500D01*
Y177500D01*
X72331Y176943D01*
X72179Y176842D01*
X71847Y176346D01*
X71731Y175760D01*
X71847Y175175D01*
X72179Y174679D01*
X72675Y174347D01*
X73260Y174231D01*
X73846Y174347D01*
X74342Y174679D01*
X74443Y174831D01*
X75000Y174981D01*
X75000D01*
X76978Y176959D01*
X77261Y176676D01*
X78449Y177865D01*
X76907Y179407D01*
X75365Y180949D01*
D02*
G37*
G36*
X78552Y176430D02*
X78483Y176328D01*
X78360Y175707D01*
X78483Y175086D01*
X78835Y174560D01*
X80082Y173313D01*
X80875Y174106D01*
X78552Y176430D01*
D02*
G37*
G36*
X33500Y170500D02*
X31819D01*
Y168819D01*
X33500D01*
Y170500D01*
D02*
G37*
G36*
X65500Y169681D02*
X63819D01*
Y168000D01*
X65500D01*
Y169681D01*
D02*
G37*
G36*
X61811Y167374D02*
X56717D01*
X51622D01*
Y165496D01*
X52022D01*
Y161959D01*
Y158441D01*
X51622D01*
Y156563D01*
X56717D01*
X61811D01*
Y157998D01*
X62000Y158471D01*
X62585Y158587D01*
X63081Y158919D01*
X63413Y159415D01*
X63529Y160000D01*
X63413Y160585D01*
X63081Y161081D01*
X62585Y161413D01*
X62000Y161529D01*
X61911Y161512D01*
X61411Y161922D01*
Y162572D01*
X61911Y162982D01*
X62000Y162965D01*
X62585Y163081D01*
X63081Y163413D01*
X63413Y163909D01*
X63529Y164494D01*
X63413Y165079D01*
X63081Y165576D01*
X62585Y165907D01*
X62000Y166024D01*
X61811Y166179D01*
Y167374D01*
D02*
G37*
G36*
X68181Y167000D02*
X66000D01*
X63819D01*
Y165319D01*
X64219D01*
Y162522D01*
X67781D01*
Y162522D01*
X68281Y162817D01*
X68500Y162774D01*
X69085Y162890D01*
X69581Y163222D01*
X69913Y163718D01*
X70029Y164303D01*
X69913Y164888D01*
X69581Y165385D01*
X69085Y165716D01*
X68500Y165832D01*
X68181Y166094D01*
Y167000D01*
D02*
G37*
G36*
X176323Y163657D02*
X172158D01*
X172158Y161189D01*
X171661Y161181D01*
X171516D01*
Y160781D01*
X168719D01*
Y160781D01*
X168219Y160486D01*
X168000Y160529D01*
X167415Y160413D01*
X166919Y160081D01*
X166587Y159585D01*
X166471Y159000D01*
X166587Y158415D01*
X166919Y157919D01*
X167415Y157587D01*
X168000Y157471D01*
X168219Y157514D01*
X168719Y157219D01*
Y157219D01*
X171162D01*
X171236Y157145D01*
X171263Y156756D01*
X171024Y156468D01*
X170181D01*
Y154000D01*
X173346D01*
X176512D01*
Y156468D01*
X176233D01*
X175878Y156819D01*
X175878Y156968D01*
Y158500D01*
X173697D01*
Y159500D01*
X175878D01*
X175878Y161056D01*
X176323Y161189D01*
Y161314D01*
X176323Y161314D01*
Y163657D01*
D02*
G37*
G36*
X33500Y159000D02*
X31819D01*
Y157319D01*
X33500D01*
Y159000D01*
D02*
G37*
G36*
X67781Y161281D02*
Y161281D01*
X64219D01*
Y158484D01*
X63819D01*
Y156803D01*
X66000D01*
X68181D01*
Y157709D01*
X68500Y157971D01*
X68819Y158034D01*
X69319Y157688D01*
Y156803D01*
X71500D01*
X73681D01*
Y158484D01*
X73281D01*
Y161281D01*
X69719D01*
Y161091D01*
X69219Y160824D01*
X69085Y160913D01*
X68500Y161029D01*
X68281Y160986D01*
X67781Y161281D01*
D02*
G37*
G36*
X61811Y155563D02*
X56717D01*
X51622D01*
Y155172D01*
X51122Y155021D01*
X51081Y155081D01*
X50585Y155413D01*
X50000Y155529D01*
X49415Y155413D01*
X48919Y155081D01*
X48587Y154585D01*
X48471Y154000D01*
X48587Y153415D01*
X48919Y152919D01*
X49415Y152587D01*
X50000Y152471D01*
X50585Y152587D01*
X51081Y152919D01*
X51338Y153303D01*
X51431Y153428D01*
X51522Y153493D01*
X52022Y153237D01*
Y150148D01*
Y146211D01*
X61411D01*
Y146379D01*
X61797Y146696D01*
X61979Y146660D01*
X62564Y146776D01*
X62668Y146845D01*
X62912Y146694D01*
X63073Y146515D01*
X62971Y146000D01*
X63087Y145415D01*
X63364Y145000D01*
X63087Y144585D01*
X62971Y144000D01*
X63087Y143415D01*
X63419Y142919D01*
X63915Y142587D01*
X64500Y142471D01*
X64545Y142480D01*
X64931Y142162D01*
Y142081D01*
X70069D01*
Y147612D01*
X64931D01*
X64931Y147612D01*
X64500Y147529D01*
X64469Y147523D01*
X64468Y147523D01*
X64451Y147520D01*
X63915Y147413D01*
X63811Y147344D01*
X63567Y147495D01*
X63406Y147674D01*
X63508Y148189D01*
X63392Y148774D01*
X63060Y149270D01*
X62564Y149602D01*
X61979Y149718D01*
X61797Y149682D01*
X61411Y149999D01*
Y151208D01*
X62309D01*
X62419Y151045D01*
X62915Y150713D01*
X63500Y150597D01*
X64085Y150713D01*
X64581Y151045D01*
X64913Y151541D01*
X65029Y152126D01*
X64913Y152711D01*
X64581Y153207D01*
X64085Y153539D01*
X63500Y153655D01*
X62915Y153539D01*
X62419Y153207D01*
X62309Y153044D01*
X61411D01*
Y153685D01*
X61811D01*
Y155563D01*
D02*
G37*
G36*
X73681Y155803D02*
X72000D01*
Y154122D01*
X73681D01*
Y155803D01*
D02*
G37*
G36*
X71000D02*
X69319D01*
Y154122D01*
X71000D01*
Y155803D01*
D02*
G37*
G36*
X68181D02*
X66500D01*
Y154122D01*
X68181D01*
Y155803D01*
D02*
G37*
G36*
X65500D02*
X63819D01*
Y154122D01*
X65500D01*
Y155803D01*
D02*
G37*
G36*
X33500Y153378D02*
X31819D01*
Y151697D01*
X33500D01*
Y153378D01*
D02*
G37*
G36*
X121500Y153181D02*
X119819D01*
Y151500D01*
X121500D01*
Y153181D01*
D02*
G37*
G36*
X176512Y153000D02*
X173846D01*
Y150531D01*
X176512D01*
Y153000D01*
D02*
G37*
G36*
X172846D02*
X170181D01*
Y150531D01*
X172846D01*
Y153000D01*
D02*
G37*
G36*
X46378Y153595D02*
X41284D01*
X36184D01*
X36181Y153378D01*
X35689Y153378D01*
X34500D01*
Y151197D01*
X34000D01*
Y150697D01*
X31819D01*
Y149016D01*
X32219D01*
Y146219D01*
X32219D01*
X32493Y145719D01*
X32450Y145500D01*
X32566Y144915D01*
X32897Y144419D01*
X33394Y144087D01*
X33979Y143971D01*
X34564Y144087D01*
X35060Y144419D01*
X35392Y144915D01*
X35508Y145500D01*
X35465Y145719D01*
X35781Y146219D01*
X35781D01*
Y148643D01*
X36018Y148863D01*
X36136Y148907D01*
X36589Y148617D01*
Y148179D01*
X45978D01*
Y149240D01*
X47309D01*
X47419Y149076D01*
X47915Y148744D01*
X48500Y148628D01*
X49085Y148744D01*
X49581Y149076D01*
X49913Y149572D01*
X50029Y150157D01*
X49913Y150743D01*
X49581Y151239D01*
X49085Y151570D01*
X48500Y151687D01*
X47915Y151570D01*
X47419Y151239D01*
X47309Y151075D01*
X45978D01*
Y151717D01*
X46378D01*
Y153595D01*
D02*
G37*
G36*
X105106Y149875D02*
X104313Y149082D01*
X105560Y147835D01*
X106086Y147483D01*
X106707Y147360D01*
X107328Y147483D01*
X107430Y147552D01*
X105106Y149875D01*
D02*
G37*
G36*
X96894D02*
X94570Y147552D01*
X94672Y147483D01*
X95293Y147360D01*
X95914Y147483D01*
X96440Y147835D01*
X97687Y149082D01*
X96894Y149875D01*
D02*
G37*
G36*
X109760Y148845D02*
X108572Y147656D01*
X109760Y146468D01*
X110949Y147656D01*
X109760Y148845D01*
D02*
G37*
G36*
X111656Y146949D02*
X110468Y145761D01*
X111656Y144572D01*
X112845Y145761D01*
X111656Y146949D01*
D02*
G37*
G36*
X82000Y147529D02*
X81415Y147413D01*
X80919Y147081D01*
X80587Y146585D01*
X80471Y146000D01*
X80587Y145415D01*
X80919Y144919D01*
X81415Y144587D01*
X82000Y144471D01*
X82585Y144587D01*
X83081Y144919D01*
X83413Y145415D01*
X83529Y146000D01*
X83413Y146585D01*
X83081Y147081D01*
X82585Y147413D01*
X82000Y147529D01*
D02*
G37*
G36*
X94396Y146689D02*
X93207Y145500D01*
X94396Y144311D01*
X95584Y145500D01*
X94396Y146689D01*
D02*
G37*
G36*
X155308Y144780D02*
X151614D01*
X147921D01*
X147968Y144544D01*
X148331Y144000D01*
X147968Y143456D01*
X147921Y143220D01*
X151614D01*
X155308D01*
X155261Y143456D01*
X154897Y144000D01*
X155261Y144544D01*
X155308Y144780D01*
D02*
G37*
G36*
X92500Y144793D02*
X91311Y143604D01*
X92500Y142415D01*
X93689Y143604D01*
X92500Y144793D01*
D02*
G37*
G36*
X155308Y142220D02*
X151614D01*
X147921D01*
X147968Y141985D01*
X148331Y141441D01*
X147968Y140897D01*
X147921Y140661D01*
X151614D01*
X155308D01*
X155261Y140897D01*
X154897Y141441D01*
X155261Y141985D01*
X155308Y142220D01*
D02*
G37*
G36*
X93303Y141181D02*
X91622D01*
Y139500D01*
X93303D01*
Y141181D01*
D02*
G37*
G36*
X107865Y146949D02*
X106676Y145761D01*
X106959Y145478D01*
X104981Y143500D01*
X107500Y140981D01*
X107530Y141011D01*
X108013Y140787D01*
X108087Y140415D01*
X108419Y139919D01*
X108915Y139587D01*
X109500Y139471D01*
X110085Y139587D01*
X110581Y139919D01*
X110913Y140415D01*
X111029Y141000D01*
X110913Y141585D01*
X110581Y142081D01*
X110157Y142365D01*
X110048Y142711D01*
X110020Y142936D01*
X110949Y143865D01*
X109407Y145407D01*
X107865Y146949D01*
D02*
G37*
G36*
X70468Y141319D02*
X68000D01*
Y138654D01*
X70468D01*
Y141319D01*
D02*
G37*
G36*
X67000D02*
X64531D01*
Y138654D01*
X67000D01*
Y141319D01*
D02*
G37*
G36*
X155308Y139661D02*
X152114D01*
Y138239D01*
X153484D01*
X154220Y138385D01*
X154844Y138802D01*
X155261Y139426D01*
X155308Y139661D01*
D02*
G37*
G36*
X151114D02*
X147921D01*
X147968Y139426D01*
X148384Y138802D01*
X149008Y138385D01*
X149744Y138239D01*
X151114D01*
Y139661D01*
D02*
G37*
G36*
X168344Y141131D02*
X163404D01*
Y136388D01*
X168344D01*
Y137842D01*
X168853D01*
X169376Y137493D01*
X170000Y137369D01*
X170624Y137493D01*
X171153Y137847D01*
X171507Y138376D01*
X171631Y139000D01*
X171507Y139624D01*
X171153Y140154D01*
X170624Y140507D01*
X170000Y140631D01*
X169376Y140507D01*
X168846Y140154D01*
X168844Y140150D01*
X168344Y140302D01*
Y141131D01*
D02*
G37*
G36*
X93303Y138500D02*
X91622D01*
Y136819D01*
X93303D01*
Y138500D01*
D02*
G37*
G36*
X70468Y137654D02*
X68000D01*
Y134988D01*
X70468D01*
Y137654D01*
D02*
G37*
G36*
X67000D02*
X64531D01*
Y134988D01*
X67000D01*
Y137654D01*
D02*
G37*
G36*
X110000Y197084D02*
X108811Y195896D01*
X110000Y194707D01*
X111189Y195896D01*
X110000Y197084D01*
D02*
G37*
G36*
X108104Y195189D02*
X106915Y194000D01*
X108104Y192811D01*
X109293Y194000D01*
X108104Y195189D01*
D02*
G37*
G36*
X106707Y192640D02*
X106086Y192517D01*
X105560Y192165D01*
X104313Y190918D01*
X105106Y190125D01*
X107430Y192448D01*
X107328Y192517D01*
X106707Y192640D01*
D02*
G37*
G36*
X115740Y191345D02*
X114551Y190156D01*
X115740Y188968D01*
X116928Y190156D01*
X115740Y191345D01*
D02*
G37*
G36*
X113844Y189449D02*
X112655Y188260D01*
X113844Y187072D01*
X115032Y188260D01*
X113844Y189449D01*
D02*
G37*
G36*
X112313Y187565D02*
X109636Y184888D01*
X106958Y182211D01*
X107061Y182143D01*
X107490Y182057D01*
X107575Y181629D01*
X107643Y181526D01*
X110320Y184203D01*
X112998Y186881D01*
X112895Y186949D01*
X112466Y187034D01*
X112381Y187463D01*
X112313Y187565D01*
D02*
G37*
G36*
X139500Y164665D02*
X137031D01*
Y162000D01*
X139500D01*
Y164665D01*
D02*
G37*
G36*
Y161000D02*
X137031D01*
Y158335D01*
X139500D01*
Y161000D01*
D02*
G37*
%LPD*%
D14*
X105237Y186888D02*
X105240Y186886D01*
X105358D01*
X106498Y188026D01*
X103541Y185191D02*
X105237Y186888D01*
X187000Y186635D02*
X188847Y188481D01*
Y188500D01*
X187000Y184704D02*
Y186635D01*
X185500Y183204D02*
X187000Y184704D01*
X103541Y185191D02*
X103664D01*
X113979Y193479D02*
Y193500D01*
X110000Y194261D02*
X111479Y195739D01*
Y196000D01*
X110000Y194000D02*
Y194261D01*
X112260Y191739D02*
Y191761D01*
X113979Y193479D01*
X77261Y179761D02*
X79000Y181500D01*
X73260Y175760D02*
X75000Y177500D01*
X52000Y195500D02*
X56724D01*
X56579Y195646D02*
X56724Y195500D01*
X41567D02*
X46000D01*
X41328Y195552D02*
X41421Y195646D01*
X41567Y195500D01*
X151614Y140161D02*
Y145280D01*
X164900Y179400D02*
X176680D01*
X161500Y176000D02*
X164900Y179400D01*
X161500Y168500D02*
Y176000D01*
X142724Y179724D02*
X145000Y182000D01*
X142724Y173295D02*
X144000Y172020D01*
X142724Y173295D02*
Y179724D01*
X170500Y171000D02*
Y174000D01*
X51479Y167874D02*
X56717D01*
X155441Y166059D02*
X156732D01*
X151500Y170000D02*
X155441Y166059D01*
X151500Y170000D02*
Y179500D01*
X66000Y164303D02*
X68500D01*
X66000Y159500D02*
X68500D01*
X71500D01*
X56717Y156063D02*
X61979D01*
X65760D01*
X66000Y156303D01*
X56717Y148189D02*
X61979D01*
X195500Y158000D02*
X197803D01*
X198000Y158197D01*
X173346Y153500D02*
X173697Y153850D01*
Y159000D01*
Y163614D01*
X174240Y164157D01*
X173697Y159000D02*
X176500D01*
X95502Y151974D02*
X98527Y155000D01*
X161500Y165500D02*
Y168500D01*
X144000Y172020D02*
X148000D01*
X144000Y162500D02*
Y172020D01*
Y162500D02*
X145500Y161000D01*
X122000Y151000D02*
X124500D01*
X145000Y182000D02*
X163000D01*
X159500Y163500D02*
X161500Y165500D01*
X163000Y182000D02*
X164000Y181000D01*
X122000Y140303D02*
X122142Y140161D01*
X128386D01*
X145500Y161000D02*
X148209D01*
X148268Y160941D01*
X151500Y179500D02*
X153600D01*
X148000D02*
X151500D01*
X156732Y163500D02*
X159500D01*
X176680Y179400D02*
X178818Y181538D01*
X173081Y182081D02*
Y189486D01*
X172000Y181000D02*
X173081Y182081D01*
X164000Y181000D02*
X172000D01*
X168000Y159000D02*
X170500D01*
X156732Y166059D02*
X156791Y166000D01*
X147880Y179380D02*
X148000Y179500D01*
X157209Y179260D02*
X157449Y179500D01*
X161500D01*
X155654Y166347D02*
X156445D01*
X156732Y166059D01*
X144724Y175760D02*
X148000D01*
X119000Y143500D02*
X122000D01*
X119000Y140000D02*
X121697D01*
X122000Y140303D01*
X153724Y175760D02*
X157449D01*
X173081Y189486D02*
X174595Y191000D01*
X179843D01*
X182153Y188689D01*
Y188500D02*
Y188689D01*
X154320Y171855D02*
X157285D01*
X51500Y175748D02*
X56717D01*
X41284Y169843D02*
X46500D01*
X41284Y161969D02*
X46500D01*
X95960Y158000D02*
X96000D01*
X92718Y154758D02*
X95960Y158000D01*
X98500Y155000D02*
X98527D01*
X89761Y147760D02*
X90240D01*
X88000Y146000D02*
X89761Y147760D01*
X107500Y143000D02*
Y143500D01*
Y143000D02*
X109500Y141000D01*
X112000Y143500D02*
Y143521D01*
X109760Y145761D02*
X112000Y143521D01*
X109760Y145761D02*
Y145928D01*
X105106Y150582D02*
X109760Y145928D01*
X92500Y145500D02*
Y146189D01*
X96894Y150582D01*
X90500Y143500D02*
X92500Y145500D01*
X86472Y172000D02*
X86500D01*
X82974Y175498D02*
X86472Y172000D01*
X77500Y179500D02*
X79000Y178000D01*
Y176689D02*
Y178000D01*
Y176689D02*
X81582Y174106D01*
X119739Y187500D02*
X119979D01*
X118239Y186000D02*
X119739Y187500D01*
X118000Y186000D02*
X118239D01*
X115085Y188260D02*
X115740D01*
X110674Y183850D02*
X115085Y188260D01*
X109282Y185242D02*
X110674Y183850D01*
X108500Y179000D02*
X108608D01*
X112066Y182458D01*
X109689Y194000D02*
X110000D01*
X105106Y189418D02*
X109689Y194000D01*
X115740Y188260D02*
X117479Y190000D01*
X151500Y147953D02*
Y150500D01*
Y147953D02*
X151614Y147839D01*
X156229Y142500D02*
X156500D01*
X156009Y142720D02*
X156229Y142500D01*
X151614Y142720D02*
X156009D01*
X68500Y156303D02*
X71500D01*
X66000D02*
X68500D01*
X66000Y167500D02*
X68500D01*
X65626Y167874D02*
X66000Y167500D01*
X56717Y167874D02*
X65626D01*
X33979Y154000D02*
X41189D01*
X41284Y154095D01*
X33979Y145500D02*
X33990Y145510D01*
Y147989D01*
X34000Y148000D01*
X33979Y151218D02*
Y154000D01*
Y151218D02*
X34000Y151197D01*
X33979Y157000D02*
X33990Y157010D01*
Y159490D01*
X34000Y159500D01*
X36500Y162500D02*
X40752D01*
X41284Y161969D01*
X36303Y162697D02*
X36500Y162500D01*
X34000Y162697D02*
X36303D01*
X33986Y168507D02*
X33990Y168510D01*
X36500Y169500D02*
X40941D01*
X41284Y169843D01*
X35507Y168507D02*
X36500Y169500D01*
X33986Y168507D02*
X35507D01*
X33979Y168500D02*
X33986Y168507D01*
X33979Y162718D02*
Y165500D01*
Y162718D02*
X34000Y162697D01*
X33990Y168510D02*
Y170990D01*
X34000Y171000D01*
X33979Y176500D02*
X33990Y176489D01*
Y174207D02*
Y176489D01*
Y174207D02*
X34000Y174197D01*
X41284Y154095D02*
X46479D01*
X145000Y195500D02*
Y198500D01*
X142400Y201100D02*
X145000Y198500D01*
X124403Y201100D02*
X142400D01*
X124000Y200697D02*
X124403Y201100D01*
X140000Y195500D02*
Y198500D01*
X139000Y199500D02*
X140000Y198500D01*
X128000Y199500D02*
X139000D01*
X126095Y197595D02*
X128000Y199500D01*
X124095Y197595D02*
X126095D01*
X124000Y197500D02*
X124095Y197595D01*
D16*
X272760Y177258D02*
X274758D01*
X275526Y178026D01*
X288263D01*
X289650Y176638D01*
Y173150D02*
Y176638D01*
X288311Y171811D02*
X289650Y173150D01*
X281716Y171811D02*
X288311D01*
X261289Y160289D02*
Y169289D01*
X260000Y159000D02*
X261289Y160289D01*
X258000Y159000D02*
X260000D01*
X260089Y173089D02*
Y176027D01*
X261289Y170986D02*
Y175530D01*
X261816Y176058D01*
X258000Y171000D02*
X260089Y173089D01*
Y176027D02*
X261319Y177258D01*
X117634Y176890D02*
X121244Y180500D01*
X180000Y176000D02*
X181300D01*
X178000Y178000D02*
X180000Y176000D01*
X168000Y178000D02*
X178000D01*
X181300Y176000D02*
X183300Y174000D01*
X166883Y176883D02*
X168000Y178000D01*
X261319Y177258D02*
X272760D01*
X272263Y176058D02*
X273650Y174670D01*
X261816Y176058D02*
X272263D01*
X273650Y164150D02*
Y174670D01*
X56639Y201415D02*
X67869D01*
X99983Y199017D02*
X111983D01*
X94200Y204800D02*
X99983Y199017D01*
X81254Y204800D02*
X94200D01*
X101500Y184500D02*
Y191546D01*
X82000Y203000D02*
X90046D01*
X101500Y191546D01*
X69254Y202800D02*
X79254D01*
X67869Y201415D02*
X69254Y202800D01*
X79254D02*
X81254Y204800D01*
X56579Y201354D02*
X56639Y201415D01*
X111983Y199017D02*
X121779Y189221D01*
Y183825D02*
Y189221D01*
X116242Y178287D02*
X121779Y183825D01*
X116242Y178282D02*
Y178287D01*
X101500Y184500D02*
X102709Y183291D01*
X104439D01*
X41421Y201354D02*
X56579D01*
X258000Y153000D02*
X260500D01*
X261595Y154095D01*
X266283D01*
X119696Y155196D02*
X120500Y156000D01*
X117196Y155196D02*
X119696D01*
X113458Y158934D02*
X117196Y155196D01*
X129000Y154000D02*
X159529D01*
X125303D02*
X129000D01*
X132000Y167402D02*
Y169000D01*
X124500Y159901D02*
X132000Y167402D01*
X122030Y160500D02*
X130000Y168470D01*
X120244Y160500D02*
X122030D01*
X121833Y162000D02*
X123509Y163676D01*
X121528Y162000D02*
X121833D01*
X119026Y164502D02*
X121528Y162000D01*
X123509Y163676D02*
X123509D01*
X128407Y168573D01*
X125000Y156000D02*
X134000D01*
X122000Y159000D02*
X125000Y156000D01*
X172526Y167026D02*
X174526D01*
X169658Y164157D02*
X172526Y167026D01*
X166760Y164157D02*
X169658D01*
X174240Y171740D02*
Y174000D01*
X171700Y169200D02*
X174240Y171740D01*
X169754Y169200D02*
X171700D01*
X168654Y170300D02*
X169754Y169200D01*
X74000Y199500D02*
X78000D01*
X79000Y198500D01*
X87811D01*
X74000Y192500D02*
X78000D01*
X79000Y191500D01*
X89244D01*
X74000Y185500D02*
X78000D01*
X79000Y184500D01*
X84000D01*
X85500Y186000D01*
X82000Y189000D02*
X88960D01*
X89244Y191500D02*
X94110Y186634D01*
X85500Y186000D02*
X89176D01*
X88960Y189000D02*
X92718Y185242D01*
X87528Y196000D02*
X95502Y188026D01*
X82000Y196000D02*
X87528D01*
X258000Y183000D02*
X265000Y190000D01*
X258000Y177000D02*
Y183000D01*
X265000Y190000D02*
X283581D01*
X258000Y165000D02*
X260089Y167089D01*
Y169786D01*
X261289Y170986D01*
Y169289D02*
X261641Y169641D01*
X266081D01*
X266283Y169843D01*
X283581Y190000D02*
X291081Y182500D01*
X271468Y161969D02*
X273650Y164150D01*
X121503Y157800D02*
X125303Y154000D01*
X138000Y152000D02*
X149500D01*
X153000Y152500D02*
X159270Y146230D01*
X160770D01*
X161000Y146000D01*
X150000Y152500D02*
X153000D01*
X149500Y152000D02*
X150000Y152500D01*
X118960Y159000D02*
X122000D01*
X116242Y161718D02*
X118960Y159000D01*
X117387Y157800D02*
X121503D01*
X169760Y146240D02*
X170000Y146000D01*
X165874Y146240D02*
X169760D01*
X169760Y138760D02*
X170000Y139000D01*
X165874Y138760D02*
X169760D01*
X161000Y140000D02*
Y142803D01*
X165634Y146000D02*
X165874Y146240D01*
X161000Y146000D02*
X165634D01*
X175126Y142500D02*
X175224D01*
X176696Y141028D01*
Y140930D02*
Y141028D01*
Y140930D02*
X178574Y139053D01*
X180251D01*
X180303Y139000D01*
X183500D02*
Y146000D01*
X192803Y147303D02*
X193000Y147500D01*
X190000Y147303D02*
X192803D01*
X189740Y156185D02*
X190000Y155925D01*
Y150500D02*
Y155925D01*
X185500Y150500D02*
X190000D01*
X183500Y148500D02*
X185500Y150500D01*
X183500Y146000D02*
Y148500D01*
X180303Y152303D02*
X180500Y152500D01*
X180303Y146000D02*
Y152303D01*
X178000Y170500D02*
X190000D01*
X174526Y167026D02*
X178000Y170500D01*
X159529Y154000D02*
X163500Y157971D01*
Y169046D01*
X164754Y170300D01*
X168654D01*
X132000Y169000D02*
X140000Y177000D01*
X136813Y181000D02*
X139000D01*
X130000Y168470D02*
Y171500D01*
X134500Y176000D01*
X128407Y168573D02*
Y172593D01*
X136813Y181000D01*
X159529Y154000D02*
Y154029D01*
X100500Y140500D02*
Y156000D01*
Y138000D02*
Y140500D01*
X98500D02*
X100500D01*
X97000Y139000D02*
X98500Y140500D01*
X123043Y169300D02*
X137243Y183500D01*
X122546Y170500D02*
X136746Y184700D01*
X137243Y183500D02*
X158000D01*
X136746Y184700D02*
X157437D01*
X91956Y169300D02*
X123043D01*
X92500Y170500D02*
X122546D01*
X121000Y180500D02*
X121244D01*
X122811Y176500D02*
X124000D01*
X122024Y167500D02*
X124500D01*
X185500Y188500D02*
Y191500D01*
X183000Y194000D02*
X185500Y191500D01*
X168500Y194000D02*
X183000D01*
X184800Y195200D02*
X188847Y191154D01*
X167937Y195200D02*
X184800D01*
X188847Y188500D02*
Y191154D01*
X88000Y175000D02*
X92500Y170500D01*
X84366Y176890D02*
X91956Y169300D01*
X96000Y167500D02*
X101700Y161800D01*
X88756Y167500D02*
X96000D01*
X120418Y165894D02*
X122024Y167500D01*
X288126Y152126D02*
X291081Y155081D01*
Y162143D02*
Y182500D01*
Y155081D02*
Y162054D01*
X291037Y162098D02*
X291081Y162143D01*
X291037Y162098D02*
X291037D01*
X291081Y162054D01*
X88621Y181066D02*
X95000Y174687D01*
Y172500D02*
Y174687D01*
X56717Y152126D02*
X63500D01*
X57274Y164494D02*
X62000D01*
X56717Y163937D02*
X57274Y164494D01*
X56717Y160000D02*
X62000D01*
X41284Y158031D02*
X48500D01*
X41284Y165905D02*
X48500D01*
X41284Y150157D02*
X48500D01*
X84366Y163110D02*
X88756Y167500D01*
X90500Y163500D02*
Y165500D01*
X87326Y160326D02*
X90500Y163500D01*
X89934Y157542D02*
X95000Y162608D01*
Y165500D01*
X91326Y156150D02*
X96176Y161000D01*
X96187D01*
X101700Y143300D02*
Y161800D01*
X114861Y160326D02*
X117387Y157800D01*
X266283Y161969D02*
X271468D01*
X145500Y167000D02*
X147000Y168500D01*
X145500Y164000D02*
Y167000D01*
Y164000D02*
X146000Y163500D01*
X148268D01*
X132697Y136000D02*
X135200Y138503D01*
X102500Y136000D02*
X132697D01*
X100500Y138000D02*
X102500Y136000D01*
X133000Y138000D02*
X134000Y139000D01*
X107000Y138000D02*
X133000D01*
X101700Y143300D02*
X107000Y138000D01*
X154000Y158000D02*
Y160500D01*
X154441Y160941D01*
X156732D01*
X151000Y158000D02*
Y165500D01*
X150441Y166059D02*
X151000Y165500D01*
X148268Y166059D02*
X150441D01*
X114850Y160326D02*
X114861D01*
X120418Y174106D02*
X122811Y176500D01*
X116000Y172500D02*
X116083D01*
X119026Y175443D01*
Y175498D01*
X117634Y163110D02*
X120244Y160500D01*
X120418Y174106D02*
X120505D01*
X104439Y183291D02*
X107781Y186634D01*
X115500Y197500D02*
X124000D01*
X112000Y201000D02*
X115500Y197500D01*
X104000Y201000D02*
X112000D01*
X128386Y147839D02*
X128500Y147953D01*
X124524Y145280D02*
X128386D01*
X122000Y147803D02*
X124524Y145280D01*
X135200Y138503D02*
Y145800D01*
X133161Y147839D02*
X135200Y145800D01*
X128386Y147839D02*
X133161D01*
X134000Y139000D02*
Y144000D01*
X132720Y145280D02*
X134000Y144000D01*
X128386Y145280D02*
X132720D01*
X166883Y174123D02*
Y176883D01*
X166760Y174000D02*
X166883Y174123D01*
X88803Y151000D02*
X91744D01*
X94110Y153366D01*
X67992Y171811D02*
X88803Y151000D01*
X56717Y171811D02*
X67992D01*
X80500Y161000D02*
X82124D01*
X63000Y178500D02*
X80500Y161000D01*
X51098Y178500D02*
X63000D01*
X82124Y161000D02*
X84233Y163110D01*
X84366D01*
X50596Y177998D02*
X51098Y178500D01*
X50500Y177998D02*
X50596D01*
X46282Y173779D02*
X50500Y177998D01*
X41284Y173779D02*
X46282D01*
X158000Y183500D02*
X168500Y194000D01*
X87150Y160326D02*
X87326D01*
X99500Y157000D02*
X100500Y156000D01*
X97744Y157000D02*
X99500D01*
X94110Y153366D02*
X97744Y157000D01*
X81500Y170000D02*
X83500D01*
X85500Y168000D01*
Y167027D02*
Y168000D01*
X82974Y164502D02*
X85500Y167027D01*
X79500Y167976D02*
Y168000D01*
Y167976D02*
X81582Y165894D01*
X88542Y181066D02*
X88621D01*
X91324Y175500D02*
X91500D01*
X87150Y179674D02*
X91324Y175500D01*
X281716Y152126D02*
X288126D01*
X41284Y165905D02*
X41304Y165927D01*
X107781Y186634D02*
X107890D01*
X87811Y198500D02*
X96894Y189418D01*
X89176Y186000D02*
X91326Y183850D01*
X85758Y178282D02*
X88000Y176040D01*
Y175000D02*
Y176040D01*
X157437Y184700D02*
X167937Y195200D01*
D72*
X222094Y146606D02*
D03*
X233906D02*
D03*
X203906Y139500D02*
D03*
X192095D02*
D03*
D73*
X226678Y162117D02*
D03*
X244388D02*
D03*
D74*
X213815Y183606D02*
D03*
X233500D02*
D03*
D75*
X250453Y188500D02*
D03*
X244547D02*
D03*
X215953Y139000D02*
D03*
X210047D02*
D03*
D76*
X148268Y160941D02*
D03*
Y163500D02*
D03*
Y166059D02*
D03*
X156732D02*
D03*
X156732Y163500D02*
D03*
X156732Y160941D02*
D03*
D77*
X183300Y174000D02*
D03*
X191700D02*
D03*
X258300Y194000D02*
D03*
X266700D02*
D03*
D78*
X205276Y158346D02*
D03*
Y154606D02*
D03*
Y150866D02*
D03*
X214724D02*
D03*
Y154606D02*
D03*
Y158346D02*
D03*
D79*
X174240Y174000D02*
D03*
X170500D02*
D03*
X166760D02*
D03*
Y164157D02*
D03*
X174240D02*
D03*
X182260Y166815D02*
D03*
X186000D02*
D03*
X189740D02*
D03*
Y156185D02*
D03*
X186000D02*
D03*
X182260D02*
D03*
D80*
X157449Y179500D02*
D03*
Y175760D02*
D03*
Y172020D02*
D03*
X148000D02*
D03*
Y175760D02*
D03*
Y179500D02*
D03*
D81*
X105106Y150582D02*
D03*
X106498Y151974D02*
D03*
X107890Y153366D02*
D03*
X109282Y154758D02*
D03*
X110674Y156150D02*
D03*
X112066Y157542D02*
D03*
X113458Y158934D02*
D03*
X114850Y160326D02*
D03*
X116242Y161718D02*
D03*
X117634Y163110D02*
D03*
X119026Y164502D02*
D03*
X120418Y165894D02*
D03*
X96894Y189418D02*
D03*
X95502Y188026D02*
D03*
X94110Y186634D02*
D03*
X92718Y185242D02*
D03*
X91326Y183850D02*
D03*
X89934Y182458D02*
D03*
X88542Y181066D02*
D03*
X87150Y179674D02*
D03*
X85758Y178282D02*
D03*
X84366Y176890D02*
D03*
X82974Y175498D02*
D03*
X81582Y174106D02*
D03*
D82*
X120418D02*
D03*
X119026Y175498D02*
D03*
X117634Y176890D02*
D03*
X116242Y178282D02*
D03*
X114850Y179674D02*
D03*
X113458Y181066D02*
D03*
X112066Y182458D02*
D03*
X110674Y183850D02*
D03*
X109282Y185242D02*
D03*
X107890Y186634D02*
D03*
X106498Y188026D02*
D03*
X105106Y189418D02*
D03*
X81582Y165894D02*
D03*
X82974Y164502D02*
D03*
X84366Y163110D02*
D03*
X85758Y161718D02*
D03*
X87150Y160326D02*
D03*
X88542Y158934D02*
D03*
X89934Y157542D02*
D03*
X91326Y156150D02*
D03*
X92718Y154758D02*
D03*
X94110Y153366D02*
D03*
X95502Y151974D02*
D03*
X96894Y150582D02*
D03*
D83*
X266283Y154095D02*
D03*
X281716Y152126D02*
D03*
X266283Y150157D02*
D03*
X281716Y148189D02*
D03*
Y156063D02*
D03*
X266283Y158031D02*
D03*
X281716Y160000D02*
D03*
X266283Y161969D02*
D03*
X281716Y163937D02*
D03*
X266283Y165905D02*
D03*
X281716Y167874D02*
D03*
X266283Y169843D02*
D03*
X281716Y171811D02*
D03*
X266283Y173779D02*
D03*
X281716Y175748D02*
D03*
X41284Y154095D02*
D03*
X56717Y152126D02*
D03*
X41284Y150157D02*
D03*
X56717Y148189D02*
D03*
Y156063D02*
D03*
X41284Y158031D02*
D03*
X56717Y160000D02*
D03*
X41284Y161969D02*
D03*
X56717Y163937D02*
D03*
X41284Y165905D02*
D03*
X56717Y167874D02*
D03*
X41284Y169843D02*
D03*
X56717Y171811D02*
D03*
X41284Y173779D02*
D03*
X56717Y175748D02*
D03*
D84*
X274000Y186406D02*
D03*
Y137531D02*
D03*
X49000Y186406D02*
D03*
Y137531D02*
D03*
D85*
X97000Y139000D02*
D03*
X93803D02*
D03*
X209500Y164106D02*
D03*
X212697D02*
D03*
X170500Y159000D02*
D03*
X173697D02*
D03*
X225697Y154106D02*
D03*
X222500D02*
D03*
X214697Y146106D02*
D03*
X211500D02*
D03*
X183500Y146000D02*
D03*
X180303D02*
D03*
X183500Y139000D02*
D03*
X180303D02*
D03*
D86*
X151614Y140161D02*
D03*
X151614Y142720D02*
D03*
X151614Y145280D02*
D03*
Y147839D02*
D03*
X128386Y140161D02*
D03*
Y142720D02*
D03*
Y145280D02*
D03*
Y147839D02*
D03*
D87*
X56579Y195646D02*
D03*
X41421D02*
D03*
X56579Y201354D02*
D03*
X41421D02*
D03*
D88*
X166654Y153500D02*
D03*
X173346D02*
D03*
D89*
X165874Y146240D02*
D03*
X175126Y142500D02*
D03*
D90*
X165874Y138760D02*
D03*
D91*
X161000Y146000D02*
D03*
Y142803D02*
D03*
X198000Y150606D02*
D03*
Y147409D02*
D03*
Y158197D02*
D03*
Y155000D02*
D03*
X124000Y197500D02*
D03*
Y200697D02*
D03*
X34000Y159500D02*
D03*
Y162697D02*
D03*
X71500Y156303D02*
D03*
Y159500D02*
D03*
X34000Y174197D02*
D03*
Y171000D02*
D03*
X66000Y164303D02*
D03*
Y167500D02*
D03*
X34000Y148000D02*
D03*
Y151197D02*
D03*
X66000Y159500D02*
D03*
Y156303D02*
D03*
X122000Y140303D02*
D03*
Y143500D02*
D03*
X289000Y160500D02*
D03*
Y163697D02*
D03*
X122000Y147803D02*
D03*
Y151000D02*
D03*
X190000Y147303D02*
D03*
Y150500D02*
D03*
D92*
X118000Y186000D02*
D03*
X115740Y188260D02*
D03*
X90240Y147760D02*
D03*
X92500Y145500D02*
D03*
X112260Y191739D02*
D03*
X110000Y194000D02*
D03*
D93*
X107500Y143500D02*
D03*
X109760Y145761D02*
D03*
X75000Y177500D02*
D03*
X77261Y179761D02*
D03*
D94*
X140000Y168193D02*
D03*
Y161500D02*
D03*
X257500Y144846D02*
D03*
Y138154D02*
D03*
X67500Y138154D02*
D03*
Y144846D02*
D03*
D95*
X244500Y180606D02*
D03*
Y172206D02*
D03*
D96*
X258653Y146000D02*
X260500D01*
X257500Y144846D02*
X258846Y143500D01*
X260500D01*
X252250Y154356D02*
Y178432D01*
X244856Y180250D02*
X250432D01*
X252250Y178432D01*
X244500Y180606D02*
X244856Y180250D01*
X203796Y139609D02*
X204405Y140218D01*
Y139000D02*
Y140218D01*
X203187D02*
X204405D01*
X203187Y139000D02*
X203796Y139609D01*
X236894Y139000D02*
X252250Y154356D01*
X138596Y158500D02*
Y159899D01*
X234500Y139000D02*
X236894D01*
X138500Y158500D02*
X138596D01*
Y159899D02*
X140000Y161303D01*
X204405Y137718D02*
Y139000D01*
X203796Y139609D02*
X203906Y139500D01*
X203471Y139934D02*
X203796Y139609D01*
X193000Y147500D02*
Y165000D01*
Y147500D02*
X200566Y139934D01*
X203471D01*
X203405Y141500D02*
X204405Y140500D01*
X203187Y136500D02*
X204405Y137718D01*
X193313Y139000D02*
X195500D01*
X192095Y140218D02*
X193313Y139000D01*
Y136500D02*
X195500D01*
X192095Y137718D02*
X193313Y136500D01*
X193095Y141500D02*
X195000D01*
X192095Y137718D02*
Y140218D01*
Y140500D01*
X193095Y141500D01*
X141000Y169193D02*
Y171500D01*
X138583Y169610D02*
Y171340D01*
X91000Y139000D02*
X93803D01*
X287500Y167874D02*
X289000Y166374D01*
Y163697D02*
Y166374D01*
X287500Y156063D02*
X289000Y157563D01*
Y160500D01*
X246000Y168106D02*
Y170956D01*
X244750Y172206D02*
X246000Y170956D01*
X244500Y172206D02*
X244750D01*
X243000Y168106D02*
Y170956D01*
X244250Y172206D01*
X244500D01*
X64500Y144000D02*
X66654D01*
X67500Y144846D01*
X64500Y146000D02*
X66347D01*
X67500Y144846D01*
X64500Y139000D02*
X66654D01*
X67500Y138154D01*
X64500Y137000D02*
X66347D01*
X67500Y138154D01*
X258347Y139000D02*
X260500D01*
X257500Y138154D02*
X258347Y139000D01*
X258653Y137000D02*
X260500D01*
X257500Y138154D02*
X258653Y137000D01*
X257500Y144846D02*
X258653Y146000D01*
X173346Y153500D02*
X174500Y152347D01*
Y150500D02*
Y152347D01*
X172500Y152654D02*
X173346Y153500D01*
X172500Y150500D02*
Y152654D01*
X165500Y152347D02*
X166654Y153500D01*
X165500Y150500D02*
Y152347D01*
X166654Y153500D02*
X167500Y152654D01*
Y150500D02*
Y152654D01*
X140000Y168193D02*
X141000Y169193D01*
X140000Y161500D02*
X141000Y160500D01*
Y158000D02*
Y160500D01*
X138583Y169610D02*
X140000Y168193D01*
Y161303D02*
Y161500D01*
X157285Y171855D02*
X157449Y172020D01*
D97*
X266441Y150000D02*
X271500D01*
X266283Y150157D02*
X266441Y150000D01*
X281716Y148189D02*
X287500D01*
X281716Y175748D02*
X287500D01*
X266283Y173779D02*
X271500D01*
X266283Y158031D02*
X271500D01*
X281716Y156063D02*
X287500D01*
X276500Y160000D02*
X281716D01*
Y167874D02*
X287500D01*
D98*
X268200Y194500D02*
X270500D01*
X267700Y195000D02*
X268200Y194500D01*
X266700Y193500D02*
X268200Y192000D01*
X270500D01*
X219000Y154606D02*
X221126Y152480D01*
X221376Y147325D02*
X222319Y148268D01*
X203906Y139500D02*
X204405Y139000D01*
X203187Y140218D02*
X203471Y139934D01*
X204405Y139000D02*
X210047D01*
X201000Y153606D02*
Y156606D01*
Y153606D02*
X202000D01*
X198260Y150866D02*
X205276D01*
X201000Y156606D02*
X202721Y154886D01*
X198606Y145500D02*
X199500D01*
X198181Y145925D02*
X198606Y145500D01*
X221126Y142685D02*
X222094Y143654D01*
X219638Y142685D02*
X221126D01*
X218496Y141543D02*
X219638Y142685D01*
X216331Y141543D02*
X218496D01*
X215953Y141165D02*
X216331Y141543D01*
X215953Y139000D02*
Y141165D01*
X266283Y165905D02*
X271500D01*
X276500Y163937D02*
X281716D01*
X198181Y145925D02*
Y147228D01*
X198000Y147409D02*
X198181Y147228D01*
X266700Y194000D02*
X267700Y195000D01*
X266700Y193500D02*
Y194000D01*
X202721Y154886D02*
X204996D01*
X205276Y154606D01*
X202000Y153606D02*
X202720Y154327D01*
X204996D01*
X205276Y154606D01*
X212000Y154606D02*
X214724D01*
X214724Y154606D01*
X210500Y153106D02*
X212000Y154606D01*
X210500Y147106D02*
Y153106D01*
Y147106D02*
X211500Y146106D01*
X208000Y164106D02*
X209500D01*
X205348Y161454D02*
X208000Y164106D01*
X205348Y158419D02*
Y161454D01*
X205276Y158346D02*
X205348Y158419D01*
X198000Y150606D02*
Y155000D01*
Y150606D02*
X198260Y150866D01*
X214697Y150839D02*
X214724Y150866D01*
X214697Y146106D02*
Y150839D01*
X214724Y154606D02*
X219000D01*
X222000D01*
X221126Y147575D02*
X221376Y147325D01*
X222094Y146606D01*
X221126Y147575D02*
Y152480D01*
X222000Y154606D02*
X222500Y154106D01*
X222319Y148268D02*
Y153925D01*
X222500Y154106D01*
D99*
X183300Y178605D02*
X183500Y178805D01*
X183300Y174000D02*
Y178605D01*
D100*
X193500Y179500D02*
X195528Y181528D01*
X180857Y179500D02*
X193500D01*
X178818Y181538D02*
X180857Y179500D01*
X195539Y183185D02*
Y188500D01*
X195528Y183174D02*
X195539Y183185D01*
X195528Y181528D02*
Y183174D01*
X178807Y183185D02*
X178818Y183174D01*
Y181538D02*
Y183174D01*
X178807Y183185D02*
Y188500D01*
D101*
X244500Y186925D02*
X244622Y187047D01*
X244500Y180606D02*
Y186925D01*
X222094Y143654D02*
Y146606D01*
D102*
X236500Y180606D02*
X244500D01*
X233500Y183606D02*
X236500Y180606D01*
D103*
X175461Y188500D02*
D03*
X178807D02*
D03*
X182153D02*
D03*
X185500D02*
D03*
X188847D02*
D03*
X192193D02*
D03*
X195539D02*
D03*
X198886D02*
D03*
Y183185D02*
D03*
X195539D02*
D03*
X192193D02*
D03*
X188847D02*
D03*
X185500D02*
D03*
X182153D02*
D03*
X178807D02*
D03*
X175461D02*
D03*
D104*
X204201Y187043D02*
D03*
X170146D02*
D03*
D105*
X204201Y200350D02*
D03*
X170146D02*
D03*
D106*
X150000Y195500D02*
D03*
Y190500D02*
D03*
X145000Y195500D02*
D03*
Y190500D02*
D03*
X140000Y195500D02*
D03*
Y190500D02*
D03*
X135000Y195500D02*
D03*
Y190500D02*
D03*
X130000Y195500D02*
D03*
Y190500D02*
D03*
D107*
X274000Y181850D02*
D03*
X49000D02*
D03*
D108*
X274000Y142087D02*
D03*
X49000D02*
D03*
D109*
X41028Y201650D02*
D03*
X56972D02*
D03*
D110*
X275698Y175518D02*
D03*
X275500Y167000D02*
D03*
X270500Y194500D02*
D03*
Y192000D02*
D03*
X249500Y167000D02*
D03*
X258000Y174000D02*
D03*
X254500Y177500D02*
D03*
X253000Y138500D02*
D03*
X219000Y202500D02*
D03*
X265000Y137000D02*
D03*
X282500Y187500D02*
D03*
X279000Y180500D02*
D03*
X269000Y179500D02*
D03*
X260000Y180500D02*
D03*
X105500Y181000D02*
D03*
X118500Y195500D02*
D03*
X98000Y198000D02*
D03*
X103541Y185191D02*
D03*
X111479Y196000D02*
D03*
X113979Y193500D02*
D03*
X34000Y203000D02*
D03*
X120500Y156000D02*
D03*
X132000Y163500D02*
D03*
X124500Y159901D02*
D03*
X82000Y146000D02*
D03*
X90500Y198500D02*
D03*
X70000Y201000D02*
D03*
X65000Y196000D02*
D03*
X59000Y189000D02*
D03*
X68500Y183000D02*
D03*
X79000Y181500D02*
D03*
X74000Y182500D02*
D03*
X82000Y189000D02*
D03*
X74000Y192500D02*
D03*
X82000Y193500D02*
D03*
X73260Y175760D02*
D03*
X74500Y197000D02*
D03*
X74000Y190000D02*
D03*
X78000Y205000D02*
D03*
X82000Y186500D02*
D03*
Y200500D02*
D03*
X56000Y144500D02*
D03*
X101000Y201000D02*
D03*
X52000Y195500D02*
D03*
X82000Y203000D02*
D03*
X46000Y195500D02*
D03*
X62000Y164494D02*
D03*
X253000Y205000D02*
D03*
Y194500D02*
D03*
X278500Y205000D02*
D03*
Y194500D02*
D03*
X227500Y205000D02*
D03*
X259000Y187500D02*
D03*
X257000D02*
D03*
X256000Y189500D02*
D03*
X258000D02*
D03*
X260000D02*
D03*
X258000Y156000D02*
D03*
Y162000D02*
D03*
Y168000D02*
D03*
Y177000D02*
D03*
Y165000D02*
D03*
Y153000D02*
D03*
X249500Y157000D02*
D03*
X254500Y157500D02*
D03*
X249500Y162000D02*
D03*
X254500Y167500D02*
D03*
Y162500D02*
D03*
Y172500D02*
D03*
X249500Y177000D02*
D03*
Y172000D02*
D03*
X142000Y150000D02*
D03*
X140500Y144500D02*
D03*
X138500Y158500D02*
D03*
X138000Y156000D02*
D03*
X135000Y151500D02*
D03*
X117000Y153000D02*
D03*
X198500Y168500D02*
D03*
X180500Y152500D02*
D03*
X182500D02*
D03*
X184500D02*
D03*
X186500D02*
D03*
X180500Y159500D02*
D03*
X182500D02*
D03*
X184500D02*
D03*
X186500D02*
D03*
Y161500D02*
D03*
X184500D02*
D03*
X182500D02*
D03*
X180500D02*
D03*
Y163500D02*
D03*
X182500D02*
D03*
X184500D02*
D03*
X186500D02*
D03*
X195000Y141500D02*
D03*
X195500Y139000D02*
D03*
Y136500D02*
D03*
X161000Y158500D02*
D03*
X165500D02*
D03*
X140000Y177000D02*
D03*
X139000Y181000D02*
D03*
X140000Y174000D02*
D03*
X141000Y171500D02*
D03*
X138583Y171340D02*
D03*
X134500Y176000D02*
D03*
X165500Y168500D02*
D03*
X103500Y165000D02*
D03*
X129000Y158500D02*
D03*
Y154000D02*
D03*
X132500Y151500D02*
D03*
X154320Y171855D02*
D03*
X130000Y181500D02*
D03*
X121000Y180500D02*
D03*
X124000Y176500D02*
D03*
X126500Y169500D02*
D03*
X124500Y167500D02*
D03*
X123500Y174000D02*
D03*
X170500Y171000D02*
D03*
X177000Y175500D02*
D03*
X192500Y192000D02*
D03*
X182000D02*
D03*
X190520Y185843D02*
D03*
X183827D02*
D03*
X155000Y187000D02*
D03*
X143500Y203500D02*
D03*
X137000D02*
D03*
X130500D02*
D03*
X201000Y153606D02*
D03*
Y156606D02*
D03*
X118500Y201000D02*
D03*
X51479Y167874D02*
D03*
X63500Y152126D02*
D03*
X199500Y145500D02*
D03*
X232500Y136500D02*
D03*
X236500D02*
D03*
X50000Y162000D02*
D03*
Y154000D02*
D03*
X113500Y174000D02*
D03*
X147500Y158000D02*
D03*
X158500Y168500D02*
D03*
X150000D02*
D03*
X162000Y184500D02*
D03*
X123000Y182500D02*
D03*
X96000Y177000D02*
D03*
X95000Y172500D02*
D03*
X68500Y164303D02*
D03*
Y159500D02*
D03*
X62000Y160000D02*
D03*
X61979Y156063D02*
D03*
X48500Y158031D02*
D03*
Y165905D02*
D03*
Y150157D02*
D03*
X61979Y148189D02*
D03*
X92500Y163500D02*
D03*
X90500Y165500D02*
D03*
X95000D02*
D03*
X96187Y161000D02*
D03*
X126000Y158000D02*
D03*
X136500Y178000D02*
D03*
X258000Y159000D02*
D03*
Y171000D02*
D03*
X74000Y185500D02*
D03*
X273500Y161000D02*
D03*
X265500Y187500D02*
D03*
X290500Y151500D02*
D03*
X287500Y180500D02*
D03*
X289000Y137000D02*
D03*
X243500Y138500D02*
D03*
X222000Y136000D02*
D03*
X187500Y135500D02*
D03*
X82000Y154000D02*
D03*
X142500Y187000D02*
D03*
X195500Y158000D02*
D03*
X198500Y177500D02*
D03*
X157000Y151500D02*
D03*
X113000Y151000D02*
D03*
X58000Y136500D02*
D03*
X39500D02*
D03*
X96500Y180500D02*
D03*
X137500Y139500D02*
D03*
X99500Y167000D02*
D03*
X99000Y191500D02*
D03*
X104000Y173000D02*
D03*
X110500Y172500D02*
D03*
X45000Y146500D02*
D03*
X73000Y163000D02*
D03*
X69000Y151000D02*
D03*
X57500Y181000D02*
D03*
X36500Y200500D02*
D03*
Y185000D02*
D03*
X82500Y136500D02*
D03*
X290000Y187000D02*
D03*
X165500Y184000D02*
D03*
X157000Y189000D02*
D03*
X195500Y201500D02*
D03*
X178500D02*
D03*
X148000Y200500D02*
D03*
X97000Y205000D02*
D03*
X104500Y157500D02*
D03*
X113000Y166500D02*
D03*
X176500Y159000D02*
D03*
X141000Y158000D02*
D03*
X165500Y150500D02*
D03*
X167500D02*
D03*
X172500D02*
D03*
X174500D02*
D03*
X64500Y137000D02*
D03*
Y139000D02*
D03*
Y144000D02*
D03*
Y146000D02*
D03*
X161500Y168500D02*
D03*
X147000D02*
D03*
X100500Y138000D02*
D03*
X107000D02*
D03*
X154000Y158000D02*
D03*
X151000D02*
D03*
X116000Y172500D02*
D03*
X124500Y151000D02*
D03*
X104000Y201000D02*
D03*
X153600Y179500D02*
D03*
X168000Y159000D02*
D03*
X161500Y179500D02*
D03*
X144724Y175760D02*
D03*
X119000Y143500D02*
D03*
Y140000D02*
D03*
X153724Y175760D02*
D03*
X51500Y175748D02*
D03*
X66500Y205000D02*
D03*
X46500Y169843D02*
D03*
Y161969D02*
D03*
X96000Y158000D02*
D03*
X98500Y155000D02*
D03*
X77500Y170000D02*
D03*
X81500D02*
D03*
X79500Y168000D02*
D03*
X91500Y175500D02*
D03*
X109500Y141000D02*
D03*
X112000Y143500D02*
D03*
X88000Y146000D02*
D03*
X90500Y143500D02*
D03*
X86500Y172000D02*
D03*
X108500Y179000D02*
D03*
X119979Y187500D02*
D03*
X117479Y190000D02*
D03*
X151500Y150500D02*
D03*
X156500Y142500D02*
D03*
X46479Y154095D02*
D03*
X33979Y176500D02*
D03*
Y145500D02*
D03*
Y157000D02*
D03*
Y168500D02*
D03*
Y154000D02*
D03*
Y165500D02*
D03*
X68500Y156303D02*
D03*
Y167500D02*
D03*
X82000Y196000D02*
D03*
X74000Y199500D02*
D03*
X250500Y182500D02*
D03*
X260500Y137000D02*
D03*
Y139000D02*
D03*
X287500Y175748D02*
D03*
X271500Y158031D02*
D03*
Y173779D02*
D03*
X276500Y160000D02*
D03*
X287500Y156063D02*
D03*
X234500Y139000D02*
D03*
X229000Y154106D02*
D03*
X243000Y168106D02*
D03*
X246000D02*
D03*
X241500Y155106D02*
D03*
X244500D02*
D03*
X247500D02*
D03*
X237500Y151106D02*
D03*
Y148106D02*
D03*
Y145106D02*
D03*
D111*
X260500Y146000D02*
D03*
Y143500D02*
D03*
X271500Y150000D02*
D03*
X138000Y152000D02*
D03*
X134000Y156000D02*
D03*
X170000Y146000D02*
D03*
Y139000D02*
D03*
X161000Y140000D02*
D03*
X91000Y139000D02*
D03*
X287500Y148189D02*
D03*
X271500Y165905D02*
D03*
X287500Y167874D02*
D03*
X276500Y163937D02*
D03*
M02*
