G04*
G04 #@! TF.GenerationSoftware,Altium Limited,Altium Designer,19.1.5 (86)*
G04*
G04 Layer_Color=8421504*
%FSLAX25Y25*%
%MOIN*%
G70*
G01*
G75*
%ADD17R,0.03537X0.09442*%
%ADD18R,0.07868X0.06884*%
%ADD19R,0.11411X0.27947*%
%ADD20R,0.02356X0.06687*%
%ADD21R,0.02750X0.01175*%
%ADD22R,0.03600X0.04600*%
%ADD23R,0.03931X0.02159*%
%ADD24R,0.01765X0.03537*%
%ADD25R,0.03537X0.02356*%
G04:AMPARAMS|DCode=26|XSize=7.81mil|YSize=53.09mil|CornerRadius=0mil|HoleSize=0mil|Usage=FLASHONLY|Rotation=225.000|XOffset=0mil|YOffset=0mil|HoleType=Round|Shape=Round|*
%AMOVALD26*
21,1,0.04528,0.00781,0.00000,0.00000,315.0*
1,1,0.00781,-0.01601,0.01601*
1,1,0.00781,0.01601,-0.01601*
%
%ADD26OVALD26*%

G04:AMPARAMS|DCode=27|XSize=7.81mil|YSize=53.09mil|CornerRadius=0mil|HoleSize=0mil|Usage=FLASHONLY|Rotation=135.000|XOffset=0mil|YOffset=0mil|HoleType=Round|Shape=Round|*
%AMOVALD27*
21,1,0.04528,0.00781,0.00000,0.00000,225.0*
1,1,0.00781,0.01601,0.01601*
1,1,0.00781,-0.01601,-0.01601*
%
%ADD27OVALD27*%

%ADD28R,0.07789X0.02356*%
%ADD29R,0.12986X0.04718*%
%ADD30R,0.01962X0.01962*%
%ADD31O,0.05112X0.01372*%
%ADD32R,0.06096X0.03734*%
%ADD33R,0.03931X0.03537*%
%ADD34R,0.03340X0.03143*%
%ADD35R,0.03340X0.03143*%
%ADD36R,0.01962X0.01962*%
%ADD37P,0.02775X4X360.0*%
%ADD38P,0.02775X4X270.0*%
%ADD39R,0.03537X0.03931*%
%ADD40R,0.04600X0.03600*%
D17*
X222094Y146606D02*
D03*
X233906D02*
D03*
X203906Y139500D02*
D03*
X192095D02*
D03*
D18*
X226678Y162117D02*
D03*
X244388D02*
D03*
D19*
X213815Y183606D02*
D03*
X233500D02*
D03*
D20*
X250453Y188500D02*
D03*
X244547D02*
D03*
X215953Y139000D02*
D03*
X210047D02*
D03*
D21*
X148268Y160941D02*
D03*
Y163500D02*
D03*
Y166059D02*
D03*
X156732D02*
D03*
X156732Y163500D02*
D03*
X156732Y160941D02*
D03*
D22*
X183300Y174000D02*
D03*
X191700D02*
D03*
X258300Y194000D02*
D03*
X266700D02*
D03*
D23*
X205276Y158346D02*
D03*
Y154606D02*
D03*
Y150866D02*
D03*
X214724D02*
D03*
Y154606D02*
D03*
Y158346D02*
D03*
D24*
X174240Y174000D02*
D03*
X170500D02*
D03*
X166760D02*
D03*
Y164157D02*
D03*
X174240D02*
D03*
X182260Y166815D02*
D03*
X186000D02*
D03*
X189740D02*
D03*
Y156185D02*
D03*
X186000D02*
D03*
X182260D02*
D03*
D25*
X157449Y179500D02*
D03*
Y175760D02*
D03*
Y172020D02*
D03*
X148000D02*
D03*
Y175760D02*
D03*
Y179500D02*
D03*
D26*
X105106Y150582D02*
D03*
X106498Y151974D02*
D03*
X107890Y153366D02*
D03*
X109282Y154758D02*
D03*
X110674Y156150D02*
D03*
X112066Y157542D02*
D03*
X113458Y158934D02*
D03*
X114850Y160326D02*
D03*
X116242Y161718D02*
D03*
X117634Y163110D02*
D03*
X119026Y164502D02*
D03*
X120418Y165894D02*
D03*
X96894Y189418D02*
D03*
X95502Y188026D02*
D03*
X94110Y186634D02*
D03*
X92718Y185242D02*
D03*
X91326Y183850D02*
D03*
X89934Y182458D02*
D03*
X88542Y181066D02*
D03*
X87150Y179674D02*
D03*
X85758Y178282D02*
D03*
X84366Y176890D02*
D03*
X82974Y175498D02*
D03*
X81582Y174106D02*
D03*
D27*
X120418D02*
D03*
X119026Y175498D02*
D03*
X117634Y176890D02*
D03*
X116242Y178282D02*
D03*
X114850Y179674D02*
D03*
X113458Y181066D02*
D03*
X112066Y182458D02*
D03*
X110674Y183850D02*
D03*
X109282Y185242D02*
D03*
X107890Y186634D02*
D03*
X106498Y188026D02*
D03*
X105106Y189418D02*
D03*
X81582Y165894D02*
D03*
X82974Y164502D02*
D03*
X84366Y163110D02*
D03*
X85758Y161718D02*
D03*
X87150Y160326D02*
D03*
X88542Y158934D02*
D03*
X89934Y157542D02*
D03*
X91326Y156150D02*
D03*
X92718Y154758D02*
D03*
X94110Y153366D02*
D03*
X95502Y151974D02*
D03*
X96894Y150582D02*
D03*
D28*
X266283Y154095D02*
D03*
X281716Y152126D02*
D03*
X266283Y150157D02*
D03*
X281716Y148189D02*
D03*
Y156063D02*
D03*
X266283Y158031D02*
D03*
X281716Y160000D02*
D03*
X266283Y161969D02*
D03*
X281716Y163937D02*
D03*
X266283Y165905D02*
D03*
X281716Y167874D02*
D03*
X266283Y169843D02*
D03*
X281716Y171811D02*
D03*
X266283Y173779D02*
D03*
X281716Y175748D02*
D03*
X41284Y154095D02*
D03*
X56717Y152126D02*
D03*
X41284Y150157D02*
D03*
X56717Y148189D02*
D03*
Y156063D02*
D03*
X41284Y158031D02*
D03*
X56717Y160000D02*
D03*
X41284Y161969D02*
D03*
X56717Y163937D02*
D03*
X41284Y165905D02*
D03*
X56717Y167874D02*
D03*
X41284Y169843D02*
D03*
X56717Y171811D02*
D03*
X41284Y173779D02*
D03*
X56717Y175748D02*
D03*
D29*
X274000Y186406D02*
D03*
Y137531D02*
D03*
X49000Y186406D02*
D03*
Y137531D02*
D03*
D30*
X97000Y139000D02*
D03*
X93803D02*
D03*
X209500Y164106D02*
D03*
X212697D02*
D03*
X170500Y159000D02*
D03*
X173697D02*
D03*
X225697Y154106D02*
D03*
X222500D02*
D03*
X214697Y146106D02*
D03*
X211500D02*
D03*
X183500Y146000D02*
D03*
X180303D02*
D03*
X183500Y139000D02*
D03*
X180303D02*
D03*
D31*
X151614Y140161D02*
D03*
X151614Y142720D02*
D03*
X151614Y145280D02*
D03*
Y147839D02*
D03*
X128386Y140161D02*
D03*
Y142720D02*
D03*
Y145280D02*
D03*
Y147839D02*
D03*
D32*
X56579Y195646D02*
D03*
X41421D02*
D03*
X56579Y201354D02*
D03*
X41421D02*
D03*
D33*
X166654Y153500D02*
D03*
X173346D02*
D03*
D34*
X165874Y146240D02*
D03*
X175126Y142500D02*
D03*
D35*
X165874Y138760D02*
D03*
D36*
X161000Y146000D02*
D03*
Y142803D02*
D03*
X198000Y150606D02*
D03*
Y147409D02*
D03*
Y158197D02*
D03*
Y155000D02*
D03*
X124000Y197500D02*
D03*
Y200697D02*
D03*
X34000Y159500D02*
D03*
Y162697D02*
D03*
X71500Y156303D02*
D03*
Y159500D02*
D03*
X34000Y174197D02*
D03*
Y171000D02*
D03*
X66000Y164303D02*
D03*
Y167500D02*
D03*
X34000Y148000D02*
D03*
Y151197D02*
D03*
X66000Y159500D02*
D03*
Y156303D02*
D03*
X122000Y140303D02*
D03*
Y143500D02*
D03*
X289000Y160500D02*
D03*
Y163697D02*
D03*
X122000Y147803D02*
D03*
Y151000D02*
D03*
X190000Y147303D02*
D03*
Y150500D02*
D03*
D37*
X118000Y186000D02*
D03*
X115740Y188260D02*
D03*
X90240Y147760D02*
D03*
X92500Y145500D02*
D03*
X112260Y191739D02*
D03*
X110000Y194000D02*
D03*
D38*
X107500Y143500D02*
D03*
X109760Y145761D02*
D03*
X75000Y177500D02*
D03*
X77261Y179761D02*
D03*
D39*
X140000Y168193D02*
D03*
Y161500D02*
D03*
X257500Y144846D02*
D03*
Y138154D02*
D03*
X67500Y138154D02*
D03*
Y144846D02*
D03*
D40*
X244500Y180606D02*
D03*
Y172206D02*
D03*
M02*
