M48
;Layer_Color=9474304
;FILE_FORMAT=2:5
INCH,LZ
;TYPE=PLATED
T1F00S00C0.00800
T2F00S00C0.01000
T3F00S00C0.01575
T5F00S00C0.02756
T6F00S00C0.05118
%
T01
X00395Y01365
X0033979Y01455
Y0154
X0046479Y0154095
X005Y0154
X00485Y0150157
X0045Y01465
X0056Y01445
X00645Y0144
Y0146
X0061979Y0148189
X00635Y0152126
X0061979Y0156063
X0069Y0151
X0082Y0154
Y0146
X0088
X00905Y01435
X00825Y01365
X00645Y0137
Y0139
X0058Y01365
X01005Y0138
X0107
X01095Y0141
X0112Y01435
X0119
Y014
X0117Y0153
X0113Y0151
X01245
X0129Y0154
X01325Y01515
X0135
X0138Y0156
X0142Y015
X01405Y01445
X01375Y01395
X01515Y01505
X01205Y0156
X00985Y0155
X0157Y01515
X01655Y01505
X01675
X01725
X01745
X01805Y01525
X01825
X01845
X01865
X0201Y0153606
X01995Y01455
X0195Y01415
X01955Y0139
Y01365
X01875Y01355
X0222Y0136
X02325Y01365
X02365
X02345Y0139
X02375Y0145106
Y0148106
Y0151106
X02415Y0155106
X02445
X02475
X0258Y0156
Y0153
X02605Y0139
Y0137
X0265
X0253Y01385
X02435
X0229Y0154106
X02875Y0156063
X02905Y01515
X0289Y0137
X01565Y01425
X0161Y01585
X01655
X0168Y0159
X01765
X01805Y01595
X01825
X01845
X01865
Y01615
X01845
X01825
X01805
Y01635
X01825
X01845
X01865
X01955Y0158
X0201Y0156606
X01985Y01685
Y01775
X019052Y0185843
X0183827
X0182Y0192
X01925
X01955Y02015
X01785
X0177Y01755
X01705Y0171
X01655Y01685
X01615
X01585
X01615Y01795
X0162Y01845
X01655Y0184
X0157Y0189
X0219Y02025
X02275Y0205
X0253
Y01945
X0256Y01895
X0258
X026
X0259Y01875
X0257
X02655
X02705Y0192
Y01945
X02785
Y0205
X02825Y01875
X029Y0187
X02875Y01805
Y0175748
X0275698Y0175518
X02715Y0173779
X0269Y01795
X026Y01805
X0258Y0177
Y0174
Y0171
Y0168
Y0165
Y0162
Y0159
X02545Y01575
Y01625
Y01675
Y01725
Y01775
X02495Y0177
Y0172
Y0167
X0246Y0168106
X0243
X02495Y0162
Y0157
X02715Y0158031
X02735Y0161
X02765Y016
X02755Y0167
X0279Y01805
X02505Y01825
X01536Y01795
X0153724Y017576
X015432Y0171855
X015Y01685
X0147
X0141Y01715
X0138583Y017134
X014Y0174
Y0177
X01365Y0178
X01345Y0176
X0139Y0181
X013Y01815
X0123Y01825
X0121Y01805
X0124Y01765
X01235Y0174
X01265Y01695
X01245Y01675
Y0159901
X0126Y0158
X0129Y01585
X0132Y01635
X01385Y01585
X0141Y0158
X01475
X0151
X0154
X0144724Y017576
X01425Y0187
X0155
X0148Y02005
X01435Y02035
X0137
X01305
X01185Y0201
Y01955
X0113979Y01935
X0111479Y0196
X0117479Y019
X0119979Y01875
X0103541Y0185191
X01055Y0181
X01085Y0179
X01105Y01725
X01135Y0174
X0116Y01725
X0113Y01665
X01035Y0165
X00995Y0167
X0095Y01655
X00925Y01635
X00905Y01655
X0096187Y0161
X0096Y0158
X01045Y01575
X0104Y0173
X0095Y01725
X0096Y0177
X00965Y01805
X00915Y01755
X00865Y0172
X00815Y017
X00775
X00795Y0168
X0073Y0163
X00685Y0164303
Y01675
Y01595
Y0156303
X0062Y016
Y0164494
X0051479Y0167874
X00485Y0165905
X005Y0162
X00465Y0161969
X00485Y0158031
X00465Y0169843
X00515Y0175748
X00575Y0181
X0059Y0189
X0065Y0196
X007Y0201
X0074Y01995
X00745Y0197
X0074Y01925
Y019
Y01855
Y01825
X00685Y0183
X0079Y01815
X0082Y01865
Y0189
Y01935
Y0196
Y02005
Y0203
X0078Y0205
X00665
X0052Y01955
X0046
X00365Y02005
X0034Y0203
X00365Y0185
X0033979Y01765
Y01685
Y01655
Y0157
X007326Y017576
X00905Y01985
X0098Y0198
X0101Y0201
X0104
X0097Y0205
X0099Y01915
T02
X0091Y0139
X0138Y0152
X0134Y0156
X0161Y014
X017Y0139
Y0146
X02605
Y01435
X02715Y015
X02875Y0148189
Y0167874
X02765Y0163937
X02715Y0165905
T03
X0175461Y0183185
X0178807
X0182153
X01855
X0188847
X0192193
X0195539
X0198886
Y01885
X0195539
X0192193
X0188847
X01855
X0182153
X0178807
X0175461
T05
X0041028Y020165
X0056972
X013Y01955
X0135
X014
X0145
X015
Y01905
X0145
X014
X0135
X013
T06
X0049Y0142087
X0274
Y018185
X0049
M30
